<svg width="42" height="35" viewBox="0 0 42 35" fill="none" xmlns="http://www.w3.org/2000/svg">
<path d="M21 5.25C21 5.25 25.701 0 31.5 0C37.299 0 42 4.765 42 10.5C42 20.369 26.534 31.638 22.147 34.635C21.452 35.11 20.548 35.11 19.853 34.635C15.466 31.638 0 20.369 0 10.5C0 4.765 4.701 0 10.5 0C16.299 0 21 5.25 21 5.25Z" fill="url(#paint0_linear_245_3111)"/>
<path opacity="0.05" d="M22.893 8C22.971 8 23.051 8.02 23.125 8.064C23.85 8.497 24.366 9.104 24.569 9.677C25.356 10.165 26 11.091 26 12.156C26 13.727 25.356 15 24.162 15C22.968 15 22 13.727 22 12.156C22 11.167 22.084 10.297 22.444 9.787V8.427C22.444 8.179 22.66 8 22.893 8ZM19.107 8C19.339 8 19.555 8.179 19.555 8.428V9.788C19.915 10.298 19.999 11.168 19.999 12.157C20 13.727 19.032 15 17.838 15C16.644 15 16 13.727 16 12.156C16 11.091 16.644 10.165 17.431 9.677C17.634 9.104 18.15 8.497 18.875 8.064C18.949 8.02 19.029 8 19.107 8ZM28 13.5C28.075 13.5 28.15 13.529 28.197 13.587C28.722 14.238 28.911 15.047 28.973 15.58C29.595 16.126 30 17.005 30 18C30 19.657 28.881 21 27.5 21C26.5 21 26.628 20.134 26 19.5C25.285 18.779 25 18.75 25 18C25 17.5 25.5 17 26 16.5C26.425 16.075 26.494 15.294 27.118 15.068C27.226 14.599 27.427 14.053 27.803 13.587C27.85 13.529 27.925 13.5 28 13.5ZM14 13.5C14.075 13.5 14.15 13.529 14.197 13.587C14.573 14.053 14.774 14.599 14.882 15.068C15.506 15.294 15.575 16.075 16 16.5C16.5 17 17 17.5 17 18C17 18.75 16.715 18.779 16 19.5C15.372 20.134 15.5 21 14.5 21C13.119 21 12 19.657 12 18C12 17.005 12.405 16.126 13.027 15.58C13.089 15.047 13.278 14.238 13.803 13.587C13.85 13.529 13.925 13.5 14 13.5ZM21.24 18C22.566 18 23.64 19.06 23.64 20.368C23.64 20.368 23.64 21.789 24.6 22.263C25.925 22.263 27 23.323 27 24.631C27 25.939 25.925 27 24.6 27C22.876 27 22.312 26.238 21.52 26.082C21.424 26.068 21.327 26.052 21.24 26.052C20.28 26.052 19.68 26.999 17.64 26.999C16.182 27 15 25.834 15 24.395C15 22.956 16.182 21.79 17.64 21.79C18.12 21.79 18.84 21.198 18.84 20.369C18.84 19.06 19.915 18 21.24 18ZM22.893 7C22.094 7 21.445 7.64 21.445 8.428V9.515C21.057 10.273 21 11.264 21 12.156C21 14.276 22.419 16 24.162 16C24.601 16 25.002 15.897 25.357 15.704C25.333 15.743 25.311 15.775 25.293 15.793C24.687 16.399 24 17.086 24 18C24 18.165 24.012 18.313 24.034 18.449C23.419 17.575 22.396 17 21.24 17C19.365 17 17.84 18.511 17.84 20.368C17.84 20.582 17.669 20.745 17.583 20.79C17.09 20.798 16.62 20.903 16.193 21.087C16.29 20.935 16.364 20.788 16.424 20.667C16.517 20.479 16.598 20.317 16.71 20.204C16.863 20.049 16.995 19.93 17.107 19.828C17.546 19.429 18 19.016 18 18C18 17.086 17.313 16.399 16.707 15.793C16.689 15.775 16.667 15.743 16.643 15.704C16.997 15.897 17.399 16 17.838 16C19.581 16 21 14.276 21 12.156C21 11.264 20.943 10.273 20.556 9.515V8.428C20.556 7.641 19.906 7 19.108 7C18.846 7 18.588 7.071 18.363 7.206C17.584 7.671 16.967 8.318 16.627 9.016C15.616 9.763 15 10.939 15 12.156C15 12.478 15.022 12.785 15.065 13.075C15.036 13.036 15.006 12.997 14.975 12.959C14.74 12.667 14.385 12.5 14 12.5C13.616 12.5 13.26 12.667 13.024 12.959C12.46 13.658 12.203 14.459 12.087 15.101C11.392 15.854 11 16.889 11 18C11 20.206 12.57 22 14.5 22C14.668 22 14.821 21.985 14.961 21.957C14.364 22.599 14 23.456 14 24.395C14 26.383 15.633 28 17.64 28C19.075 28 19.93 27.595 20.554 27.299C20.886 27.142 21.082 27.052 21.24 27.052C21.272 27.054 21.313 27.062 21.354 27.068C21.464 27.09 21.64 27.181 21.864 27.296C22.442 27.593 23.233 28 24.6 28C26.475 28 28 26.489 28 24.632C28 22.885 26.651 21.444 24.93 21.279C24.733 21.064 24.644 20.603 24.64 20.361C24.64 20.049 24.597 19.747 24.515 19.46C24.634 19.594 24.764 19.712 24.892 19.829C25.004 19.931 25.136 20.05 25.289 20.205C25.401 20.318 25.482 20.48 25.575 20.667C25.808 21.133 26.239 22 27.5 22C29.43 22 31 20.206 31 18C31 16.889 30.608 15.854 29.913 15.101C29.797 14.459 29.539 13.658 28.976 12.959C28.74 12.667 28.385 12.5 28 12.5C27.616 12.5 27.26 12.667 27.024 12.959C26.993 12.997 26.963 13.036 26.934 13.075C26.978 12.785 27 12.478 27 12.156C27 10.938 26.384 9.763 25.374 9.016C25.034 8.318 24.417 7.672 23.638 7.206C23.412 7.071 23.155 7 22.893 7Z" fill="black"/>
<path opacity="0.07" d="M22.893 8C22.971 8 23.051 8.02 23.125 8.064C23.85 8.497 24.366 9.104 24.569 9.677C25.356 10.165 26 11.091 26 12.156C26 13.727 25.356 15 24.162 15C22.968 15 22 13.727 22 12.156C22 11.167 22.084 10.297 22.444 9.787V8.427C22.444 8.179 22.66 8 22.893 8ZM19.107 8C19.339 8 19.555 8.179 19.555 8.428V9.788C19.915 10.298 19.999 11.168 19.999 12.157C20 13.727 19.032 15 17.838 15C16.644 15 16 13.727 16 12.156C16 11.091 16.644 10.165 17.431 9.677C17.634 9.104 18.15 8.497 18.875 8.064C18.949 8.02 19.029 8 19.107 8ZM28 13.5C28.075 13.5 28.15 13.529 28.197 13.587C28.722 14.238 28.911 15.047 28.973 15.58C29.595 16.126 30 17.005 30 18C30 19.657 28.881 21 27.5 21C26.5 21 26.628 20.134 26 19.5C25.285 18.779 25 18.75 25 18C25 17.5 25.5 17 26 16.5C26.425 16.075 26.494 15.294 27.118 15.068C27.226 14.599 27.427 14.053 27.803 13.587C27.85 13.529 27.925 13.5 28 13.5ZM14 13.5C14.075 13.5 14.15 13.529 14.197 13.587C14.573 14.053 14.774 14.599 14.882 15.068C15.506 15.294 15.575 16.075 16 16.5C16.5 17 17 17.5 17 18C17 18.75 16.715 18.779 16 19.5C15.372 20.134 15.5 21 14.5 21C13.119 21 12 19.657 12 18C12 17.005 12.405 16.126 13.027 15.58C13.089 15.047 13.278 14.238 13.803 13.587C13.85 13.529 13.925 13.5 14 13.5ZM21.24 18C22.566 18 23.64 19.06 23.64 20.368C23.64 20.368 23.64 21.789 24.6 22.263C25.925 22.263 27 23.323 27 24.631C27 25.939 25.925 27 24.6 27C22.876 27 22.312 26.238 21.52 26.082C21.424 26.068 21.327 26.052 21.24 26.052C20.28 26.052 19.68 26.999 17.64 26.999C16.182 27 15 25.834 15 24.395C15 22.956 16.182 21.79 17.64 21.79C18.12 21.79 18.84 21.198 18.84 20.369C18.84 19.06 19.915 18 21.24 18ZM22.893 7.5C22.37 7.5 21.945 7.916 21.945 8.428V9.642C21.556 10.311 21.501 11.282 21.501 12.156C21.501 14 22.695 15.5 24.163 15.5C25.561 15.5 26.501 14.156 26.501 12.156C26.501 11.057 25.921 9.995 24.977 9.346C24.694 8.693 24.122 8.077 23.383 7.635C23.233 7.547 23.064 7.5 22.893 7.5ZM19.107 7.5C18.935 7.5 18.766 7.547 18.618 7.635C17.878 8.077 17.306 8.693 17.024 9.346C16.08 9.995 15.5 11.057 15.5 12.156C15.5 14.156 16.44 15.5 17.838 15.5C19.306 15.5 20.5 14 20.5 12.156C20.5 11.282 20.445 10.311 20.056 9.642V8.428C20.056 7.916 19.63 7.5 19.107 7.5ZM28 13C27.767 13 27.554 13.1 27.414 13.273C27.091 13.674 26.848 14.16 26.691 14.721C26.303 14.96 26.107 15.346 25.944 15.666C25.848 15.856 25.756 16.036 25.647 16.146C25.083 16.71 24.5 17.293 24.5 18C24.5 18.795 24.806 19.073 25.229 19.458C25.346 19.565 25.484 19.69 25.645 19.852C25.814 20.022 25.916 20.227 26.024 20.444C26.245 20.89 26.549 21.5 27.5 21.5C29.154 21.5 30.5 19.93 30.5 18C30.5 16.962 30.118 16.003 29.445 15.336C29.363 14.805 29.149 13.969 28.587 13.273C28.446 13.1 28.233 13 28 13ZM14 13C13.767 13 13.554 13.1 13.414 13.273C12.852 13.969 12.638 14.805 12.556 15.336C11.882 16.003 11.5 16.962 11.5 18C11.5 19.93 12.846 21.5 14.5 21.5C15.451 21.5 15.755 20.89 15.976 20.444C16.084 20.227 16.186 20.022 16.355 19.852C16.516 19.69 16.654 19.565 16.771 19.458C17.194 19.073 17.5 18.795 17.5 18C17.5 17.293 16.917 16.71 16.354 16.146C16.244 16.036 16.153 15.857 16.057 15.666C15.894 15.345 15.699 14.959 15.31 14.721C15.153 14.16 14.91 13.673 14.587 13.273C14.446 13.1 14.233 13 14 13ZM21.24 17.5C19.641 17.5 18.34 18.787 18.34 20.368C18.34 20.922 17.842 21.289 17.64 21.289C15.909 21.289 14.5 22.682 14.5 24.394C14.5 26.106 15.909 27.499 17.64 27.499C18.962 27.499 19.759 27.122 20.34 26.846C20.701 26.675 20.962 26.551 21.24 26.551C21.299 26.551 21.364 26.563 21.428 26.572C21.629 26.611 21.834 26.716 22.092 26.849C22.624 27.123 23.353 27.497 24.599 27.497C26.198 27.497 27.499 26.21 27.499 24.629C27.499 23.093 26.271 21.834 24.735 21.764C24.163 21.391 24.139 20.375 24.139 20.364C24.14 18.787 22.839 17.5 21.24 17.5Z" fill="black"/>
<path d="M20 12.1562C20 13.7272 19.032 15.0002 17.838 15.0002C16.644 15.0002 16 13.7272 16 12.1562C16 11.0912 16.644 10.1652 17.431 9.67722C17.634 9.10422 18.15 8.49722 18.875 8.06422C19.17 7.88822 19.556 8.09522 19.556 8.42722V9.78722C19.916 10.2972 20 11.1672 20 12.1562ZM24.569 9.67722C24.366 9.10422 23.85 8.49722 23.125 8.06422C22.83 7.88822 22.444 8.09522 22.444 8.42722V9.78722C22.084 10.2972 22 11.1672 22 12.1562C22 13.7272 22.968 15.0002 24.162 15.0002C25.356 15.0002 26 13.7272 26 12.1562C26 11.0912 25.356 10.1652 24.569 9.67722ZM24.6 22.2632C23.64 21.7892 23.64 20.3682 23.64 20.3682C23.64 19.0602 22.565 18.0002 21.24 18.0002C19.915 18.0002 18.84 19.0602 18.84 20.3682C18.84 21.1972 18.12 21.7892 17.64 21.7892C16.182 21.7892 15 22.9552 15 24.3942C15 25.8342 16.182 27.0002 17.64 27.0002C19.68 27.0002 20.28 26.0532 21.24 26.0532C21.328 26.0532 21.424 26.0682 21.52 26.0832C22.312 26.2382 22.876 27.0002 24.6 27.0002C25.925 27.0002 27 25.9402 27 24.6322C27 23.3242 25.925 22.2632 24.6 22.2632ZM16 16.5002C15.575 16.0752 15.506 15.2942 14.882 15.0682C14.774 14.5992 14.573 14.0532 14.197 13.5872C14.103 13.4712 13.896 13.4712 13.803 13.5872C13.278 14.2382 13.089 15.0472 13.027 15.5802C12.405 16.1262 12 17.0052 12 18.0002C12 19.6572 13.119 21.0002 14.5 21.0002C15.5 21.0002 15.372 20.1342 16 19.5002C16.715 18.7792 17 18.7502 17 18.0002C17 17.5002 16.5 17.0002 16 16.5002ZM28.973 15.5802C28.911 15.0472 28.722 14.2382 28.197 13.5872C28.103 13.4712 27.896 13.4712 27.803 13.5872C27.427 14.0532 27.226 14.5992 27.118 15.0682C26.494 15.2942 26.425 16.0752 26 16.5002C25.5 17.0002 25 17.5002 25 18.0002C25 18.7502 25.285 18.7792 26 19.5002C26.628 20.1342 26.5 21.0002 27.5 21.0002C28.881 21.0002 30 19.6572 30 18.0002C30 17.0052 29.595 16.1262 28.973 15.5802Z" fill="url(#paint1_linear_245_3111)"/>
<defs>
<linearGradient id="paint0_linear_245_3111" x1="12.595" y1="-2.133" x2="32.333" y2="28.264" gradientUnits="userSpaceOnUse">
<stop stop-color="#F44F5A"/>
<stop offset="0.443" stop-color="#EE3D4A"/>
<stop offset="1" stop-color="#E52030"/>
</linearGradient>
<linearGradient id="paint1_linear_245_3111" x1="21" y1="-0.99978" x2="21" y2="37.8382" gradientUnits="userSpaceOnUse">
<stop stop-color="#FFCF54"/>
<stop offset="0.261" stop-color="#FDCB4D"/>
<stop offset="0.639" stop-color="#F7C13A"/>
<stop offset="1" stop-color="#F0B421"/>
</linearGradient>
</defs>
</svg>
