<svg width="66" height="67" viewBox="0 0 66 67" fill="none" xmlns="http://www.w3.org/2000/svg">
<ellipse cx="32.9214" cy="33.6852" rx="32.9214" ry="32.8961" fill="#EEEEF2"/>
<path fill-rule="evenodd" clip-rule="evenodd" d="M37.7547 28.5667C37.7903 28.6288 37.8525 28.6732 37.9325 28.6732C40.0658 28.6732 41.8081 30.4122 41.8081 32.5415V37.8116C41.8081 39.9409 40.0658 41.6799 37.9325 41.6799H27.9058C25.7636 41.6799 24.0303 39.9409 24.0303 37.8116V32.5415C24.0303 30.4122 25.7636 28.6732 27.9058 28.6732C27.9769 28.6732 28.0481 28.6377 28.0747 28.5667L28.1281 28.4603C28.1587 28.3958 28.1902 28.3296 28.2221 28.2624C28.4495 27.7838 28.7011 27.2543 28.8569 26.9431C29.2658 26.1446 29.9592 25.701 30.8214 25.6921H35.0081C35.8703 25.701 36.5725 26.1446 36.9814 26.9431C37.1214 27.2226 37.3347 27.6727 37.5402 28.1066C37.5827 28.1962 37.6248 28.285 37.6658 28.3715L37.7547 28.5667ZM37.1067 31.9745C37.1067 32.4181 37.4622 32.773 37.9067 32.773C38.3511 32.773 38.7156 32.4181 38.7156 31.9745C38.7156 31.5309 38.3511 31.1671 37.9067 31.1671C37.4622 31.1671 37.1067 31.5309 37.1067 31.9745ZM31.3819 33.3481C31.7997 32.9311 32.3419 32.7093 32.9197 32.7093C33.4975 32.7093 34.0397 32.9311 34.4486 33.3393C34.8575 33.7474 35.0797 34.2886 35.0797 34.8653C35.0708 36.0541 34.1108 37.0212 32.9197 37.0212C32.3419 37.0212 31.7997 36.7994 31.3908 36.3913C30.9819 35.9832 30.7597 35.442 30.7597 34.8653V34.8564C30.7508 34.2975 30.973 33.7562 31.3819 33.3481ZM35.3818 37.332C34.7507 37.9619 33.8796 38.3523 32.9196 38.3523C31.9863 38.3523 31.1152 37.9885 30.4485 37.332C29.7907 36.6666 29.4263 35.7971 29.4263 34.8655C29.4174 33.9428 29.7818 33.0733 30.4396 32.4079C31.1063 31.7425 31.9863 31.3787 32.9196 31.3787C33.8529 31.3787 34.7329 31.7425 35.3907 32.3991C36.0485 33.0645 36.4129 33.9428 36.4129 34.8655C36.404 35.8326 36.0129 36.7021 35.3818 37.332Z" fill="#26324A"/>
</svg>
