<svg width="112" height="111" viewBox="0 0 112 111" fill="none" xmlns="http://www.w3.org/2000/svg">
<g clip-path="url(#clip0_2_4796)">
<path d="M111.5 55.5C111.5 71.457 104.766 85.8415 93.9837 95.9646C84.0551 105.289 70.6944 111 55.9993 111C25.3486 111 0.5 86.1514 0.5 55.5C0.5 45.5707 3.10786 36.2495 7.67704 28.185C17.2087 11.3573 35.2779 0 56 0C86.6514 0 111.5 24.8486 111.5 55.5Z" fill="url(#paint0_linear_2_4796)"/>
<path d="M103.73 43.0991C103.133 40.796 102.366 38.5343 101.43 36.3233C101.429 36.3197 101.427 36.3154 101.425 36.3117C100.076 33.1212 98.4105 30.1077 96.4448 27.2953C94.7941 24.9312 92.9307 22.7094 90.8627 20.6428C86.3378 16.1165 81.0662 12.5639 75.1938 10.0801C72.9785 9.14186 70.7131 8.37344 68.4064 7.77553C64.3821 6.73065 60.2316 6.20312 56.0028 6.20312H55.965C49.3257 6.20748 42.8822 7.51213 36.8117 10.0801C30.9401 12.5639 25.6685 16.1165 21.1428 20.6428C16.6919 25.0923 13.1821 30.2645 10.7056 36.0193C10.6635 36.1158 10.6222 36.2138 10.5801 36.311C8.01213 42.3815 6.70748 48.8249 6.70312 55.4643V55.502C6.70312 59.7309 7.23065 63.8814 8.27553 67.9057C8.87416 70.2124 9.64259 72.4778 10.5801 74.6931C13.0639 80.5647 16.6165 85.8363 21.1428 90.362C23.2094 92.4292 25.4312 94.2933 27.7953 95.9441C30.607 97.9105 33.6212 99.5751 36.8117 100.925C36.8154 100.927 36.8197 100.928 36.8233 100.929C39.0343 101.865 41.296 102.632 43.5991 103.229C47.6234 104.274 51.7739 104.802 56.0028 104.802H56.0405C62.6799 104.797 69.1233 103.493 75.1938 100.925C78.9046 99.3552 82.3745 97.3591 85.5686 94.9602C87.4298 93.5626 89.196 92.0287 90.8627 90.362C95.3891 85.837 98.9417 80.5654 101.425 74.6931C103.993 68.6226 105.298 62.1791 105.302 55.5398V55.502C105.302 51.2732 104.775 47.1226 103.73 43.0984V43.0991ZM66.6323 90.2531C63.2691 91.2842 59.699 91.8393 56.0028 91.8393C35.9664 91.8393 19.6662 75.5391 19.6662 55.5028C19.6662 54.6792 19.6938 53.8607 19.7482 53.0495C21.0137 34.153 36.79 19.1662 56.0028 19.1662C75.2156 19.1662 92.3393 35.4664 92.3393 55.5028C92.3393 71.8421 81.4994 85.697 66.633 90.2531H66.6323Z" fill="url(#paint1_linear_2_4796)"/>
<path d="M108.508 55.5C108.508 54.4674 108.479 53.44 108.42 52.4161C108.201 48.6037 107.573 44.861 106.543 41.2177C106.474 40.9746 106.405 40.7323 106.332 40.4907C105.784 38.6527 105.133 36.8408 104.379 35.0587C104.212 34.664 104.04 34.2714 103.864 33.8825C102.447 30.7435 100.736 27.7721 98.7437 24.9894C97.0675 22.6457 95.1933 20.4354 93.1289 18.3703C88.3086 13.5508 82.6946 9.76456 76.4405 7.12043C74.6584 6.36651 72.8473 5.71491 71.0086 5.16707C70.7662 5.09451 70.5246 5.02413 70.2815 4.95592C66.6382 3.92555 62.8955 3.29789 59.0831 3.07876C58.0593 3.01998 57.0325 2.99023 55.9993 2.99023C51.3132 2.99023 46.7187 3.59902 42.2706 4.80354C42.0617 4.85941 41.8534 4.91674 41.6452 4.97551C41.5429 5.00381 41.4405 5.03356 41.3397 5.06331C41.2381 5.09306 41.1365 5.12209 41.0349 5.15256C40.8521 5.20626 40.6692 5.2614 40.4878 5.318C38.8218 5.83319 37.1768 6.434 35.558 7.1197C29.3039 9.76456 23.6899 13.5494 18.8696 18.3696C14.8606 22.3786 11.5692 26.9348 9.05351 31.9524C8.54341 32.969 8.06523 34.0044 7.6197 35.058C6.934 36.6768 6.33391 38.3218 5.818 39.9878C5.76068 40.1692 5.70553 40.3513 5.65256 40.5349C5.62209 40.6365 5.59306 40.7381 5.56331 40.8397C5.53356 40.9413 5.50454 41.0429 5.47551 41.1452C5.41674 41.3534 5.35941 41.5617 5.30354 41.7706C4.09902 46.2187 3.49023 50.8132 3.49023 55.4992C3.49023 56.5318 3.51998 57.5593 3.57876 58.5831C3.79789 62.3955 4.42555 66.1382 5.45592 69.7815C5.52413 70.0246 5.59379 70.2669 5.66635 70.5086C6.21419 72.3465 6.86579 74.1584 7.6197 75.9405C10.2646 82.1946 14.0494 87.8086 18.8696 92.6289C20.9354 94.6947 23.1449 96.5682 25.4887 98.2437C28.2714 100.235 31.2428 101.947 34.3818 103.364C34.7714 103.54 35.1633 103.712 35.558 103.879C37.3401 104.633 39.1512 105.284 40.9899 105.832C41.2323 105.905 41.4739 105.975 41.717 106.043C45.3603 107.074 49.103 107.701 52.9154 107.92C53.9392 107.979 54.966 108.009 55.9993 108.009C60.6853 108.009 65.2799 107.4 69.7279 106.196C69.9368 106.14 70.1451 106.082 70.3533 106.024C70.4557 105.995 70.558 105.966 70.6588 105.937C70.7604 105.907 70.862 105.878 70.9636 105.847C71.1464 105.794 71.3293 105.739 71.5107 105.682C73.1767 105.167 74.8217 104.566 76.4405 103.88C81.3667 101.797 85.8974 99.0056 89.9543 95.5575C91.0478 94.6287 92.1065 93.6527 93.1289 92.6303C97.9484 87.8094 101.735 82.1953 104.379 75.942C105.065 74.3231 105.665 72.6782 106.181 71.0121C106.238 70.8307 106.293 70.6486 106.346 70.465C106.376 70.3634 106.405 70.2619 106.435 70.1603C106.465 70.0587 106.494 69.9571 106.523 69.8548C106.582 69.6465 106.639 69.4383 106.695 69.2293C107.899 64.7813 108.508 60.1867 108.508 55.5007V55.5ZM70.3018 91.4628C69.8113 91.6588 69.3157 91.846 68.815 92.0216C64.8017 93.4336 60.4886 94.202 55.9993 94.202C54.9072 94.202 53.826 94.157 52.7565 94.0663C50.124 93.8472 47.5647 93.3632 45.1063 92.6405C41.6655 91.6304 38.4227 90.1531 35.4506 88.2832C25.4161 81.9725 18.4691 71.1841 17.4329 58.7427C17.3429 57.6732 17.2979 56.5913 17.2979 55.5C17.2979 53.564 17.4416 51.66 17.7166 49.7981C18.0809 47.3448 18.6759 44.9655 19.4784 42.6835C23.3662 31.6345 32.1353 22.8662 43.1835 18.9784C47.1968 17.5664 51.5099 16.7979 55.9993 16.7979C57.0913 16.7979 58.1725 16.8429 59.242 16.9329C71.6834 17.9691 82.4718 24.9161 88.7825 34.9506C90.6531 37.9227 92.1305 41.1655 93.1398 44.6063C93.8625 47.0647 94.3465 49.624 94.5656 52.2565C94.6556 53.326 94.7006 54.4079 94.7006 55.4992C94.7006 59.9886 93.9322 64.3017 92.5201 68.315C88.8079 78.8633 80.6476 87.3334 70.3011 91.4614L70.3018 91.4628Z" fill="url(#paint2_linear_2_4796)"/>
<path d="M56.0033 94.2039C51.5139 94.2039 47.2009 93.4355 43.1875 92.0234L59.0871 107.923C63.1542 107.689 67.1415 106.991 71.0133 105.835L59.2468 94.0689C58.1772 94.1589 57.0953 94.2046 56.004 94.2046L56.0033 94.2039Z" fill="#FFDC73"/>
<path d="M19.4817 68.3192C18.0696 64.3059 17.3012 59.9928 17.3012 55.5035C17.3012 54.4114 17.3462 53.3302 17.4362 52.2607L5.66962 40.4941C4.51444 44.366 3.81568 48.3533 3.58203 52.4203L19.4817 68.32V68.3192Z" fill="#FFDC73"/>
<path d="M76.5522 88.2842C73.5801 90.1548 70.3373 91.6322 66.8965 92.6415L77.6211 103.366C80.7601 101.948 83.7314 100.237 86.5142 98.2454L76.5529 88.2842H76.5522Z" fill="#FFDC73"/>
<path d="M8.13672 33.8865L18.8613 44.6111C19.8713 41.1702 21.3487 37.9275 23.2186 34.9554L13.2574 24.9941C11.2656 27.7769 9.55457 30.7483 8.13672 33.8873V33.8865Z" fill="#FFDC73"/>
<path d="M92.5234 42.6892C93.9355 46.7026 94.7039 51.0156 94.7039 55.505C94.7039 56.597 94.6589 57.6782 94.5689 58.7478L106.335 70.5143C107.491 66.6424 108.189 62.6552 108.423 58.5881L92.5234 42.6885V42.6892Z" fill="#FFDC73"/>
<path d="M40.9949 5.16962L52.7614 16.9362C53.831 16.8462 54.9129 16.8012 56.0042 16.8012C60.4935 16.8012 64.8066 17.5696 68.82 18.9817L52.9203 3.08203C48.8533 3.31568 44.866 4.01444 40.9941 5.16962H40.9949Z" fill="#FFDC73"/>
<g opacity="0.5">
<path d="M105.545 35.3893C102.857 28.7572 98.9051 22.8072 93.8019 17.7039C88.6986 12.6007 82.7486 8.64898 76.1165 5.96058C69.7108 3.36289 62.9423 2.0459 55.9989 2.0459C49.0555 2.0459 42.2869 3.36289 35.8812 5.96058C29.2491 8.64898 23.2991 12.6007 18.1959 17.7039C14.3131 21.5867 11.0972 25.9599 8.59598 30.7512C7.81014 32.2561 7.09469 33.8038 6.45107 35.3893C3.8541 41.795 2.53711 48.5635 2.53711 55.5069C2.53711 62.4503 3.8541 69.2189 6.45179 75.6246C9.14019 82.2567 13.0919 88.2067 18.1951 93.31C23.2984 98.4132 29.2484 102.365 35.8805 105.053C42.2862 107.651 49.0547 108.968 55.9981 108.968C62.9415 108.968 69.7101 107.651 76.1158 105.054C81.6689 102.802 86.7438 99.6656 91.2441 95.7081C92.1185 94.9397 92.9711 94.1393 93.8012 93.3092C98.9044 88.206 102.856 82.256 105.544 75.6238C108.142 69.2181 109.459 62.4496 109.459 55.5062C109.459 48.5628 108.142 41.7943 105.544 35.3886L105.545 35.3893ZM106.436 70.1665C106.406 70.2681 106.377 70.3697 106.346 70.4713C106.293 70.6541 106.237 70.837 106.181 71.0184C103.748 78.9414 99.4022 86.3963 93.1459 92.6533C92.1236 93.6757 91.0692 94.6473 89.9859 95.5673C84.44 100.279 78.1381 103.653 71.511 105.688C71.3296 105.746 71.1475 105.801 70.9639 105.854C70.8623 105.884 70.7607 105.913 70.6592 105.943C70.5576 105.973 70.456 106.002 70.3537 106.03C70.1454 106.089 69.9365 106.145 69.7282 106.202C64.2411 107.678 58.5588 108.253 52.9194 107.923C49.1418 107.704 45.3839 107.079 41.7173 106.05C41.4743 105.981 41.2319 105.912 40.9903 105.838C32.8808 103.436 25.2423 99.0408 18.8533 92.6511C12.4642 86.2621 8.06846 78.6235 5.66596 70.5141C5.59339 70.2717 5.52301 70.0301 5.45553 69.787C4.42661 66.1198 3.80113 62.3625 3.58199 58.585C3.25329 52.9462 3.82725 47.264 5.30315 41.7761C5.35975 41.5672 5.41562 41.3589 5.47512 41.1507C5.50342 41.0484 5.53317 40.946 5.56292 40.8452C5.59267 40.7436 5.62169 40.642 5.65217 40.5404C5.70586 40.3576 5.76101 40.1747 5.81761 39.9933C6.6615 37.2411 7.73758 34.5447 9.04586 31.9361C11.4999 27.0353 14.7695 22.4414 18.8525 18.3577C25.1102 12.1015 32.5652 7.75575 40.4874 5.32277C40.6688 5.26545 40.851 5.2103 41.0345 5.15733C41.1361 5.12685 41.2377 5.09783 41.3393 5.06808C41.4409 5.03833 41.5425 5.0093 41.6448 4.98028C41.853 4.92078 42.062 4.86491 42.2703 4.80831C47.7573 3.33241 53.4396 2.75773 59.0791 3.08715C62.8566 3.30629 66.6146 3.93104 70.2811 4.96069C70.5242 5.0289 70.7666 5.09856 71.0082 5.17184C79.1176 7.57435 86.7562 11.9694 93.1452 18.3591C99.5342 24.7482 103.93 32.3867 106.333 40.4962C106.405 40.7385 106.475 40.9802 106.543 41.2232C107.572 44.8905 108.197 48.6477 108.416 52.426C108.745 58.0647 108.171 63.747 106.695 69.2348C106.639 69.4438 106.583 69.652 106.523 69.8603C106.495 69.9626 106.465 70.0649 106.436 70.1658V70.1665Z" fill="url(#paint3_linear_2_4796)"/>
</g>
<path opacity="0.6" d="M79.8758 46.6475C77.1337 46.017 75.512 44.2798 75.0679 41.4957C74.901 40.4442 74.208 39.9653 73.3075 39.6374C71.4703 38.9683 71.4507 38.9342 71.5349 36.9272C71.5487 36.5622 71.5566 36.198 71.574 35.6465C71.2214 35.8562 71.0494 35.9193 70.9275 36.0369C68.7558 38.1172 66.5876 40.2055 64.4239 42.2938C63.0945 43.5745 61.7536 44.8407 60.4533 46.1512C59.1015 47.5153 57.5864 48.598 55.6642 48.9238C55.4734 48.955 55.2514 48.9557 55.0301 48.9238H55.0264L42.8499 47.8411C39.8125 48.061 37.1096 47.6249 34.8573 45.4815C32.7893 43.5129 30.5529 41.6763 30.9847 38.3276C29.6974 39.157 29.0335 40.5386 29.5139 42.0624C29.9652 43.4882 30.7518 44.8103 31.4244 46.1621C31.6094 46.5336 31.9672 46.818 32.1522 47.1895C33.3625 49.6102 35.2048 51.1703 37.9506 51.536C38.0369 51.549 38.1167 51.6267 38.3032 51.7333C37.8882 52.4872 37.4361 53.2158 37.0726 53.9856C35.9588 56.3446 36.2766 57.5694 38.5006 58.9575C39.4526 59.5533 40.4474 60.0024 40.5308 61.3114C40.6281 62.8766 40.4148 64.3626 39.3735 65.6049C38.8532 66.2224 38.2669 66.7862 37.6922 67.3558C37.1393 67.9029 37.1393 68.3346 37.513 69.1067C38.5702 71.2828 39.4802 73.5402 40.3016 75.8179C40.6324 76.7365 41.1324 77.169 42.0198 77.2133C42.7258 77.2495 43.4456 77.2408 44.1451 77.153C44.8446 77.0652 45.0398 76.59 44.5798 76.0617C44.0537 75.4594 43.3731 74.9936 42.839 74.395C42.4566 73.9676 41.985 73.4459 41.9364 72.9271C41.8079 71.6144 41.6889 70.2416 41.9458 68.9667C42.2825 67.289 43.4935 66.0105 44.9339 65.1869C46.5353 64.2712 47.1738 62.9622 47.3342 61.2476C47.4561 59.9495 47.8762 59.6171 49.1141 60.0612C50.0386 60.3899 51.0276 60.8427 51.6922 61.5277C53.3909 63.2778 55.4379 63.6189 57.6713 63.317C58.5195 63.2017 58.8823 63.4745 59.0231 64.2204C59.2546 65.4576 59.5223 66.6926 59.6645 67.9421C59.9722 70.6211 60.8712 73.0402 62.6628 75.0756C64.011 76.6074 65.8403 76.9753 67.6862 76.1161C67.9939 75.9732 68.1985 75.6082 68.451 75.3441C68.1869 75.1307 67.9547 74.8311 67.6528 74.7135C64.368 73.4226 62.2151 69.5972 62.866 66.1375C62.8826 66.049 62.9523 65.9713 62.9559 65.9655C63.9979 62.4623 67.0912 59.8595 67.0912 59.8595C67.0912 59.8595 67.1035 59.8392 67.1275 59.8072C67.1384 59.7891 67.1529 59.7688 67.1667 59.7448C67.2008 59.6948 67.2407 59.6338 67.2748 59.5794C67.2951 59.5547 67.3111 59.5272 67.3292 59.5003C67.3307 59.4945 67.3343 59.4887 67.3379 59.4843C68.5961 57.4969 69.2659 55.1183 69.5706 52.6157C69.6846 51.6854 69.7027 50.7371 69.9051 49.8271C70.2179 48.4195 71.0719 48.0603 72.3642 48.7177C72.7641 48.9223 73.1399 49.1864 73.5013 49.4593C75.6339 51.0643 79.2873 50.2088 80.4606 47.8245C80.7857 47.1634 80.613 46.8159 79.8787 46.6468L79.8758 46.6475Z" fill="#AC8C2A"/>
<path opacity="0.8" d="M80.8895 44.6905C78.1474 44.0599 76.5256 42.3228 76.0816 39.5386C75.9147 38.4872 75.2217 38.0083 74.3212 37.6803C72.484 37.0113 72.4644 36.9772 72.5485 34.9702C72.5623 34.6052 72.5703 34.2409 72.5877 33.6895C72.2351 33.8992 72.0631 33.9623 71.9412 34.0798C69.7694 36.1602 67.6013 38.2485 65.4375 40.3368C64.1082 41.6175 62.7673 42.8837 61.467 44.1942C60.1151 45.5583 58.6001 46.6409 56.6779 46.9667C56.4871 46.9987 56.265 46.9987 56.0437 46.9667H56.0401L43.8636 45.8841C40.8262 46.104 38.1233 45.6679 35.8709 43.5244C33.8029 41.5558 31.5666 39.7193 31.9983 36.3706C30.7111 37.2 30.0472 38.5815 30.5275 40.1053C30.9789 41.5312 31.7654 42.8532 32.4381 44.205C32.6231 44.5766 32.9808 44.861 33.1659 45.2325C34.3762 47.6532 36.2185 49.2132 38.9642 49.5789C39.0506 49.592 39.1304 49.6696 39.3169 49.7763C38.9018 50.5302 38.4498 51.2587 38.0862 52.0286C36.9724 54.3876 37.2902 55.6124 39.5143 57.0005C40.4663 57.5962 41.4611 58.0454 41.5445 59.3544C41.6417 60.9196 41.4284 62.4056 40.3872 63.6479C39.8669 64.2654 39.2806 64.8292 38.7059 65.3988C38.153 65.9459 38.153 66.3776 38.5267 67.1497C39.5839 69.3258 40.4938 71.5832 41.3152 73.8609C41.6461 74.7795 42.1461 75.212 43.0335 75.2562C43.7395 75.2925 44.4593 75.2838 45.1588 75.196C45.8583 75.1082 46.0535 74.6329 45.5934 74.1047C45.0674 73.5024 44.3867 73.0366 43.8527 72.4379C43.4703 72.0106 42.9987 71.4888 42.95 70.97C42.8216 69.6574 42.7026 68.2845 42.9595 67.0096C43.2961 65.332 44.5072 64.0535 45.9475 63.2299C47.549 62.3142 48.1875 61.0052 48.3479 59.2906C48.4698 57.9924 48.8899 57.6601 50.1278 58.1042C51.0522 58.4329 52.0412 58.8857 52.7059 59.5706C54.4046 61.3208 56.4515 61.6619 58.685 61.36C59.5332 61.2446 59.896 61.5175 60.0368 62.2634C60.2683 63.5006 60.536 64.7356 60.6782 65.9851C60.9859 68.664 61.8849 71.0832 63.6765 73.1186C65.0246 74.6503 66.8539 75.0182 68.6999 74.1591C69.0075 74.0162 69.2122 73.6512 69.4647 73.387C69.2006 73.1737 68.9684 72.8748 68.6665 72.7565C65.3817 71.4656 63.2288 67.6402 63.8796 64.1805C63.8963 64.0919 63.966 64.0143 63.9696 64.0085C65.0116 60.5052 68.1049 57.9025 68.1049 57.9025C68.1049 57.9025 68.1172 57.8821 68.1412 57.8502C68.152 57.8321 68.1666 57.8117 68.1803 57.7878C68.2144 57.7377 68.2544 57.6768 68.2885 57.6224C68.3088 57.5977 68.3247 57.5701 68.3429 57.5433C68.3443 57.5375 68.348 57.5317 68.3516 57.5273C69.6098 55.5399 70.2795 53.1613 70.5843 50.6586C70.6982 49.7284 70.7164 48.78 70.9188 47.8701C71.2315 46.4624 72.0856 46.1033 73.3779 46.7607C73.7777 46.9653 74.1536 47.2294 74.5149 47.5022C76.6475 49.1073 80.301 48.2518 81.4743 45.8674C81.7994 45.2064 81.6267 44.8588 80.8924 44.6898L80.8895 44.6905Z" fill="white"/>
<path d="M80.8895 45.7046C78.1474 45.0741 76.5256 43.337 76.0816 40.5528C75.9147 39.5014 75.2217 39.0225 74.3212 38.6945C72.484 38.0255 72.4644 37.9914 72.5485 35.9843C72.5623 35.6193 72.5703 35.2551 72.5877 34.7036C72.2351 34.9133 72.0631 34.9764 71.9412 35.094C69.7694 37.1743 67.6013 39.2626 65.4375 41.351C64.1082 42.6317 62.7673 43.8979 61.467 45.2083C60.1151 46.5725 58.6001 47.6551 56.6779 47.9809C56.4871 48.0128 56.265 48.0128 56.0437 47.9809H56.0401L43.8636 46.8983C40.8262 47.1181 38.1233 46.682 35.8709 44.5386C33.8029 42.57 31.5666 40.7335 31.9983 37.3848C30.7111 38.2141 30.0472 39.5957 30.5275 41.1195C30.9789 42.5453 31.7654 43.8674 32.4381 45.2192C32.6231 45.5907 32.9808 45.8752 33.1659 46.2467C34.3762 48.6673 36.2185 50.2274 38.9642 50.5931C39.0506 50.6062 39.1304 50.6838 39.3169 50.7905C38.9018 51.5444 38.4498 52.2729 38.0862 53.0428C36.9724 55.4017 37.2902 56.6266 39.5143 58.0147C40.4663 58.6104 41.4611 59.0596 41.5445 60.3686C41.6417 61.9337 41.4284 63.4198 40.3872 64.662C39.8669 65.2795 39.2806 65.8433 38.7059 66.4129C38.153 66.96 38.153 67.3918 38.5267 68.1638C39.5839 70.3399 40.4938 72.5973 41.3152 74.875C41.6461 75.7937 42.1461 76.2261 43.0335 76.2704C43.7395 76.3067 44.4593 76.298 45.1588 76.2102C45.8583 76.1224 46.0535 75.6471 45.5934 75.1188C45.0674 74.5166 44.3867 74.0507 43.8527 73.4521C43.4703 73.0247 42.9987 72.503 42.95 71.9842C42.8216 70.6716 42.7026 69.2987 42.9595 68.0238C43.2961 66.3462 44.5072 65.0676 45.9475 64.2441C47.549 63.3283 48.1875 62.0193 48.3479 60.3047C48.4698 59.0066 48.8899 58.6743 50.1278 59.1183C51.0522 59.447 52.0412 59.8998 52.7059 60.5848C54.4046 62.335 56.4515 62.676 58.685 62.3742C59.5332 62.2588 59.896 62.5316 60.0368 63.2776C60.2683 64.5147 60.536 65.7497 60.6782 66.9992C60.9859 69.6782 61.8849 72.0974 63.6765 74.1327C65.0246 75.6645 66.8539 76.0324 68.6999 75.1733C69.0075 75.0303 69.2122 74.6653 69.4647 74.4012C69.2006 74.1879 68.9684 73.8882 68.6665 73.7706C65.3817 72.4798 63.2288 68.6543 63.8796 65.1946C63.8963 65.1061 63.966 65.0285 63.9696 65.0227C65.0116 61.5194 68.1049 58.9166 68.1049 58.9166C68.1049 58.9166 68.1172 58.8963 68.1412 58.8644C68.152 58.8462 68.1666 58.8259 68.1803 58.802C68.2144 58.7519 68.2544 58.6909 68.2885 58.6365C68.3088 58.6119 68.3247 58.5843 68.3429 58.5574C68.3443 58.5516 68.348 58.5458 68.3516 58.5415C69.6098 56.554 70.2795 54.1755 70.5843 51.6728C70.6982 50.7426 70.7164 49.7942 70.9188 48.8843C71.2315 47.4766 72.0856 47.1174 73.3779 47.7748C73.7777 47.9794 74.1536 48.2436 74.5149 48.5164C76.6475 50.1214 80.301 49.266 81.4743 46.8816C81.7994 46.2206 81.6267 45.873 80.8924 45.7039L80.8895 45.7046Z" fill="#FFDC73"/>
</g>
<defs>
<linearGradient id="paint0_linear_2_4796" x1="74.9879" y1="3.33274" x2="37.0129" y2="107.667" gradientUnits="userSpaceOnUse">
<stop stop-color="#FFBF00"/>
<stop offset="0.2" stop-color="#FABB00"/>
<stop offset="0.42" stop-color="#ECB100"/>
<stop offset="0.65" stop-color="#D6A000"/>
<stop offset="0.89" stop-color="#B78900"/>
<stop offset="1" stop-color="#A67C00"/>
</linearGradient>
<linearGradient id="paint1_linear_2_4796" x1="18.2346" y1="87.1939" x2="93.7709" y2="23.8116" gradientUnits="userSpaceOnUse">
<stop stop-color="#FFBF00"/>
<stop offset="0.2" stop-color="#FABB00"/>
<stop offset="0.42" stop-color="#ECB100"/>
<stop offset="0.65" stop-color="#D6A000"/>
<stop offset="0.89" stop-color="#B78900"/>
<stop offset="1" stop-color="#A67C00"/>
</linearGradient>
<linearGradient id="paint2_linear_2_4796" x1="107.72" y1="64.6202" x2="4.2768" y2="46.3805" gradientUnits="userSpaceOnUse">
<stop stop-color="#FFBF00"/>
<stop offset="0.24" stop-color="#FFC004"/>
<stop offset="0.5" stop-color="#FFC312"/>
<stop offset="0.78" stop-color="#FFC928"/>
<stop offset="1" stop-color="#FFCF40"/>
</linearGradient>
<linearGradient id="paint3_linear_2_4796" x1="52.6887" y1="110.398" x2="59.0381" y2="5.18103" gradientUnits="userSpaceOnUse">
<stop stop-color="#A67C00"/>
<stop offset="0.11" stop-color="#A77E04"/>
<stop offset="0.23" stop-color="#AC8512"/>
<stop offset="0.37" stop-color="#B49028"/>
<stop offset="0.5" stop-color="#BFA047"/>
<stop offset="0.64" stop-color="#CDB570"/>
<stop offset="0.78" stop-color="#DECEA1"/>
<stop offset="0.92" stop-color="#F2ECDA"/>
<stop offset="1" stop-color="white"/>
</linearGradient>
<clipPath id="clip0_2_4796">
<rect width="111" height="111" fill="white" transform="translate(0.5)"/>
</clipPath>
</defs>
</svg>
