<svg width="24" height="24" viewBox="0 0 24 24" fill="none" xmlns="http://www.w3.org/2000/svg">
<path d="M13.9629 5.23579V7.47424" stroke="black" stroke-width="1.5" stroke-linecap="round" stroke-linejoin="round"/>
<path d="M13.9629 17.7324V19.6046" stroke="black" stroke-width="1.5" stroke-linecap="round" stroke-linejoin="round"/>
<path d="M13.9629 14.5541V10.0948" stroke="black" stroke-width="1.5" stroke-linecap="round" stroke-linejoin="round"/>
<path d="M18.4494 19.8047C18.8475 19.8075 19.2422 19.7318 19.6111 19.5821C19.9799 19.4323 20.3156 19.2112 20.5991 18.9317C20.8825 18.6522 21.1081 18.3196 21.263 17.9529C21.4179 17.5862 21.4992 17.1929 21.502 16.7949V14.3897C20.9745 14.3897 20.4687 14.1801 20.0957 13.8071C19.7227 13.4341 19.5131 12.9285 19.5131 12.4011C19.5131 11.8736 19.7227 11.3676 20.0957 10.9946C20.4687 10.6216 20.9745 10.4119 21.502 10.4119V8.0127C21.4995 7.6144 21.4187 7.22031 21.2639 6.85328C21.1092 6.48626 20.8835 6.15342 20.6 5.87362C20.3165 5.59383 19.9808 5.3727 19.6117 5.22278C19.2427 5.07285 18.8477 4.9973 18.4494 5.00011H6.05415C5.65608 4.9973 5.26154 5.07257 4.8927 5.22232C4.52386 5.37207 4.18814 5.59322 3.90468 5.87272C3.62123 6.15222 3.39542 6.48477 3.24051 6.85148C3.0856 7.21818 3.00459 7.61192 3.00181 8.00999V10.4896C3.25539 10.479 3.50847 10.5185 3.74683 10.6057C3.98519 10.6929 4.20407 10.8264 4.3909 10.9982C4.57773 11.17 4.72894 11.3768 4.83579 11.607C4.94263 11.8373 5.00293 12.0861 5.01352 12.3396C5.01352 12.3591 5.01352 12.3794 5.01352 12.3988C5.01131 12.9284 4.79905 13.4358 4.42319 13.8089C4.04733 14.182 3.53862 14.3906 3.00903 14.3888H3V16.7872C3.00254 17.1854 3.08345 17.5792 3.23825 17.9461C3.39306 18.3131 3.61872 18.6461 3.9022 18.9258C4.18568 19.2055 4.52148 19.4263 4.89044 19.5762C5.2594 19.7261 5.65412 19.8017 6.05234 19.7989H18.4476L18.4494 19.8047Z" stroke="black" stroke-width="1.5" stroke-linecap="round" stroke-linejoin="round"/>
</svg>
