<svg width="46" height="46" viewBox="0 0 46 46" fill="none" xmlns="http://www.w3.org/2000/svg">
<g filter="url(#filter0_i_2_7836)">
<path d="M22.7099 43.7645C34.0096 43.7645 43.1698 34.6443 43.1698 23.394C43.1698 12.1436 34.0096 3.02344 22.7099 3.02344C11.4102 3.02344 2.25 12.1436 2.25 23.394C2.25 34.6443 11.4102 43.7645 22.7099 43.7645Z" fill="#F9A73E"/>
</g>
<path d="M22.7065 45.9107C10.2335 45.9107 0.0859375 35.8074 0.0859375 23.3891C0.0859375 10.9707 10.2335 0.867188 22.7065 0.867188C35.1795 0.867188 45.3271 10.9704 45.3271 23.3889C45.3271 35.8074 35.1794 45.9107 22.7065 45.9107ZM22.7065 5.17162C12.6173 5.17162 4.40913 13.3439 4.40913 23.3891C4.40913 33.4342 12.6173 41.6065 22.7065 41.6065C32.7957 41.6065 41.0039 33.4342 41.0039 23.3891C41.0039 13.3439 32.7957 5.17162 22.7065 5.17162Z" fill="#FFC61B"/>
<g clip-path="url(#clip0_2_7836)">
<path d="M35.1622 19.2497L26.8208 18.0429L23.0903 10.5173C22.764 9.85899 21.8181 9.85867 21.4915 10.5173L17.7612 18.0429L9.41979 19.2497C8.69028 19.3552 8.3973 20.2508 8.92575 20.7636L14.9616 26.6214L13.5367 34.8928C13.4793 35.2258 13.6167 35.5623 13.8913 35.7609C14.1658 35.9595 14.5297 35.9857 14.8301 35.8284L22.2909 31.9233C30.4135 36.1748 29.8556 35.9305 30.1665 35.9305C30.7159 35.9305 31.139 35.4373 31.0452 34.8928L29.6203 26.6214L35.6562 20.7636C36.1841 20.2512 35.8923 19.3554 35.1622 19.2497Z" fill="#F7AC16"/>
<path d="M22.291 10.0234C21.951 10.0234 21.6414 10.2159 21.4915 10.5182L17.7611 18.0438L9.41979 19.2506C8.69028 19.3562 8.3973 20.2517 8.92575 20.7645L14.9616 26.6223L13.5367 34.8937C13.4793 35.2267 13.6167 35.5632 13.8913 35.7618C14.1658 35.9604 14.5297 35.9866 14.8301 35.8293L22.2909 31.9242H22.291V10.0234Z" fill="#F2D422"/>
<path d="M9.41979 19.2459C8.69028 19.3514 8.3973 20.247 8.92575 20.7598L14.9616 26.6176L13.5367 34.889C13.4793 35.222 13.6167 35.5585 13.8913 35.7571C14.1658 35.9557 14.5297 35.9818 14.8301 35.8246L22.2909 31.9195C30.4135 36.171 29.8556 35.9266 30.1665 35.9266C30.3513 35.9266 30.5353 35.8694 30.6905 35.7571L17.7611 18.0391L9.41979 19.2459Z" fill="#F7AC16"/>
<path d="M18.1663 25.5978C11.7008 19.323 11.9787 19.6593 11.892 19.3338C11.8567 19.2031 11.8494 19.051 11.8878 18.8906L9.41979 19.2477C8.69028 19.3532 8.3973 20.2488 8.92575 20.7615L14.9616 26.6194L13.5367 34.8908C13.4793 35.2239 13.6167 35.5603 13.8913 35.759C14.1658 35.9575 14.5297 35.9837 14.8301 35.8265L17.0237 34.6783C16.7981 34.4759 16.6893 34.1713 16.7414 33.8692L18.1663 25.5978Z" fill="#F48B19"/>
<path d="M8.92246 20.7692L14.9583 26.6271L13.5334 34.8985C13.476 35.2315 13.6134 35.5679 13.888 35.7666C14.1625 35.9651 14.5264 35.9913 14.8268 35.8341L22.2876 31.929C30.4102 36.1805 29.8523 35.9361 30.1632 35.9361C30.7127 35.9361 31.1357 35.443 31.0419 34.8985L29.617 26.6271L8.6968 19.8594C8.59257 20.2314 8.69691 20.5504 8.92246 20.7692Z" fill="#F2D422"/>
<path d="M8.92246 20.7692L14.9583 26.6271L13.5334 34.8985C13.476 35.2315 13.6134 35.5679 13.888 35.7666C14.1625 35.9651 14.5264 35.9913 14.8268 35.8341L17.0205 34.6859C16.7948 34.4835 16.686 34.1789 16.7381 33.8768L18.163 25.6054L14.0152 21.5799L8.6968 19.8594C8.59257 20.2314 8.69691 20.5504 8.92246 20.7692Z" fill="#EFB616"/>
<path d="M13.5363 34.8984C13.4789 35.2314 13.6164 35.5679 13.891 35.7665C14.1655 35.9651 14.5294 35.9913 14.8297 35.834L22.2906 31.9289C30.4131 36.1804 29.8552 35.9361 30.1661 35.9361C30.7156 35.9361 31.1386 35.4429 31.0448 34.8984L29.62 26.627L35.6559 20.7692C35.8988 20.5334 35.9862 20.1806 35.8814 19.8594L14.9612 26.627L13.5363 34.8984Z" fill="#F7AC16"/>
<path d="M13.5363 34.8903C13.4789 35.2233 13.6164 35.5598 13.891 35.7584C14.1655 35.9569 14.5294 35.9831 14.8297 35.8259L17.0234 34.6777C16.7977 34.4754 16.689 34.1708 16.741 33.8686L18.166 25.5972L18.1543 25.5859L14.9612 26.6189L13.5363 34.8903Z" fill="#F48B19"/>
<path d="M14.8294 35.8246L22.2902 31.9194C30.4128 36.1709 29.8549 35.9266 30.1658 35.9266C30.7152 35.9266 31.1383 35.4334 31.0445 34.8889L29.6196 26.6176L35.6555 20.7597C36.1833 20.2473 35.8915 19.3515 35.1614 19.2458L26.82 18.0391L13.8906 35.7571C14.1651 35.9556 14.529 35.9818 14.8294 35.8246Z" fill="#F2D422"/>
<path d="M35.8811 19.8594L22.2902 24.256L13.8906 35.7666C14.1651 35.9651 14.529 35.9913 14.8294 35.8341L22.2902 31.929C30.4128 36.1805 29.8549 35.9361 30.1658 35.9361C30.7152 35.9361 31.1383 35.443 31.0445 34.8985L29.6196 26.6271L35.6555 20.7692C35.8985 20.5334 35.9859 20.1807 35.8811 19.8594Z" fill="#F7AC16"/>
<path d="M29.6197 26.6211L22.2902 24.25L13.8906 35.7606C14.1651 35.9591 14.529 35.9853 14.8294 35.8281L22.2902 31.923C30.4128 36.1745 29.8549 35.9301 30.1658 35.9301C30.7152 35.9301 31.1383 35.4369 31.0445 34.8925L29.6197 26.6211Z" fill="#F2D422"/>
<path d="M13.8906 35.7606C14.1651 35.9591 14.529 35.9853 14.8294 35.8281L22.2902 31.923C30.4128 36.1745 29.8549 35.9301 30.1658 35.9301C30.3506 35.9301 30.5346 35.8729 30.6898 35.7606L22.2902 24.25L13.8906 35.7606Z" fill="#F7AC16"/>
<path d="M22.2903 24.2501L22.2902 24.25L13.8906 35.7606C14.1651 35.9591 14.529 35.9853 14.8294 35.8281L22.2902 31.923H22.2903V24.2501Z" fill="#F2D422"/>
<path d="M17.1953 31.2344L13.8906 35.7629C14.1651 35.9615 14.529 35.9877 14.8294 35.8304L17.023 34.6822C16.7974 34.4799 16.6886 34.1753 16.7407 33.8731L17.1953 31.2344Z" fill="#EFB616"/>
</g>
<defs>
<filter id="filter0_i_2_7836" x="2.25" y="3.02344" width="40.9199" height="44.0351" filterUnits="userSpaceOnUse" color-interpolation-filters="sRGB">
<feFlood flood-opacity="0" result="BackgroundImageFix"/>
<feBlend mode="normal" in="SourceGraphic" in2="BackgroundImageFix" result="shape"/>
<feColorMatrix in="SourceAlpha" type="matrix" values="0 0 0 0 0 0 0 0 0 0 0 0 0 0 0 0 0 0 127 0" result="hardAlpha"/>
<feOffset dy="3.29412"/>
<feGaussianBlur stdDeviation="1.64706"/>
<feComposite in2="hardAlpha" operator="arithmetic" k2="-1" k3="1"/>
<feColorMatrix type="matrix" values="0 0 0 0 0 0 0 0 0 0 0 0 0 0 0 0 0 0 0.25 0"/>
<feBlend mode="normal" in2="shape" result="effect1_innerShadow_2_7836"/>
</filter>
<clipPath id="clip0_2_7836">
<rect width="27.2694" height="27.1502" fill="white" transform="translate(8.65625 9.40625)"/>
</clipPath>
</defs>
</svg>
