<svg width="40" height="40" viewBox="0 0 40 40" fill="none" xmlns="http://www.w3.org/2000/svg">
<path d="M37.191 9.817C38.287 8.899 39 7.538 39 6C39 3.243 36.757 1 34 1C32.462 1 31.101 1.713 30.183 2.809C27.198 1.036 23.724 0 20 0C8.954 0 0 8.954 0 20C0 23.724 1.036 27.198 2.809 30.183C1.713 31.101 1 32.462 1 34C1 36.757 3.243 39 6 39C7.538 39 8.899 38.287 9.817 37.191C12.802 38.964 16.276 40 20 40C31.046 40 40 31.046 40 20C40 16.276 38.964 12.802 37.191 9.817ZM6 37C4.346 37 3 35.654 3 34C3 33.156 3.353 32.396 3.915 31.85C5.108 33.466 6.534 34.892 8.15 36.085C7.604 36.647 6.844 37 6 37ZM34 3C35.654 3 37 4.346 37 6C37 6.844 36.647 7.604 36.085 8.15C34.892 6.534 33.466 5.108 31.85 3.915C32.396 3.353 33.156 3 34 3Z" fill="url(#paint0_linear_245_3088)"/>
<path opacity="0.05" d="M20 2C29.941 2 38 10.059 38 20C38 29.941 29.941 38 20 38C10.059 38 2 29.941 2 20C2 10.059 10.059 2 20 2ZM20 1C9.523 1 1 9.523 1 20C1 30.477 9.523 39 20 39C30.477 39 39 30.477 39 20C39 9.523 30.477 1 20 1Z" fill="black"/>
<path opacity="0.07" d="M20 2C29.941 2 38 10.059 38 20C38 29.941 29.941 38 20 38C10.059 38 2 29.941 2 20C2 10.059 10.059 2 20 2ZM20 1.5C9.799 1.5 1.5 9.799 1.5 20C1.5 30.201 9.799 38.5 20 38.5C30.201 38.5 38.5 30.201 38.5 20C38.5 9.799 30.201 1.5 20 1.5Z" fill="black"/>
<path d="M20 38C29.9411 38 38 29.9411 38 20C38 10.0589 29.9411 2 20 2C10.0589 2 2 10.0589 2 20C2 29.9411 10.0589 38 20 38Z" fill="url(#paint1_linear_245_3088)"/>
<path d="M27.0245 11.231C25.8245 10.954 24.7215 12.316 24.0635 15.166C23.4055 18.016 24.9995 20 24.9995 20C24.9995 20 27.3025 18.915 27.9605 16.065C28.6185 13.215 28.2235 11.508 27.0245 11.231Z" fill="url(#paint2_linear_245_3088)"/>
<path d="M22 14C22 17.9 25 20 25 20V8C25 8 22 10.1 22 14Z" fill="url(#paint3_linear_245_3088)"/>
<path d="M30.26 9.21387L25 19.9999C25 19.9999 28.617 19.4279 30.327 15.9219C32.037 12.4159 30.26 9.21387 30.26 9.21387Z" fill="url(#paint4_linear_245_3088)"/>
<path d="M9.3036 26.0529C9.9556 27.0969 11.6986 26.9139 14.1796 25.3639C16.6606 23.8139 16.9356 21.2829 16.9356 21.2829C16.9356 21.2829 14.5396 20.4219 12.0596 21.9719C9.5796 23.5219 8.6516 25.0089 9.3036 26.0529Z" fill="url(#paint5_linear_245_3088)"/>
<path d="M16.9371 21.2842L8.45215 29.7692C8.45215 29.7692 12.0581 30.4052 14.8161 27.6482C17.5731 24.8902 16.9371 21.2842 16.9371 21.2842Z" fill="url(#paint6_linear_245_3088)"/>
<path d="M10.2868 20.4009C6.59882 21.6709 5.59082 25.1909 5.59082 25.1909L16.9368 21.2839C16.9368 21.2839 13.9738 19.1309 10.2868 20.4009Z" fill="url(#paint7_linear_245_3088)"/>
<path d="M29.7453 30.7502C28.6623 29.8232 27.6373 28.8372 26.6303 27.8332L26.3743 27.5822C26.3393 27.5522 26.3023 27.5262 26.2643 27.4992C26.1863 27.4522 26.0993 27.4192 26.0073 27.4032C25.8243 27.3592 25.6283 27.3742 25.4503 27.4672C25.0763 27.6262 24.8313 28.1002 24.9203 28.6292C24.8993 28.6542 25.0123 28.9102 25.0613 29.0542L25.2483 29.5632L25.5813 30.6032C25.7853 31.3062 25.9693 32.0202 26.0803 32.7732C26.1663 33.3572 25.7723 33.9012 25.2003 33.9882C24.8763 34.0382 24.5603 33.9262 24.3353 33.7162C23.7873 33.1992 23.3123 32.6422 22.8583 32.0752L22.2033 31.2092L21.8973 30.7652C21.7853 30.5902 21.7203 30.5352 21.5573 30.2312C21.0073 29.1992 20.8433 27.9152 21.1603 26.7472C21.4583 25.5782 22.2013 24.5002 23.2143 23.8282C24.2263 23.1522 25.4983 22.8672 26.7043 23.0582C27.3073 23.1572 27.8943 23.3672 28.4263 23.6802C28.6903 23.8392 28.9423 24.0192 29.1763 24.2202L29.4973 24.5222L29.6803 24.7162C30.6633 25.7452 31.6293 26.7922 32.5363 27.8982C33.2393 28.7552 33.1293 30.0322 32.2903 30.7502C31.5433 31.3902 30.4683 31.3692 29.7453 30.7502Z" fill="url(#paint8_linear_245_3088)"/>
<path d="M13.8738 16.1632C13.7498 14.7332 13.7088 13.3032 13.6908 11.8732L13.6838 11.5122C13.6798 11.4652 13.6718 11.4202 13.6638 11.3752C13.6418 11.2862 13.6028 11.2002 13.5488 11.1232C13.4508 10.9612 13.3018 10.8302 13.1118 10.7682C12.7388 10.6112 12.2378 10.7692 11.9358 11.2052C11.9038 11.2082 11.8068 11.4692 11.7418 11.6052L11.5228 12.0972L11.0388 13.0682C10.6978 13.7092 10.3338 14.3432 9.89184 14.9532C9.54884 15.4252 8.89584 15.5252 8.43184 15.1762C8.16884 14.9782 8.02284 14.6722 8.00984 14.3642C7.97984 13.6072 8.02984 12.8742 8.10184 12.1492L8.23784 11.0702L8.32884 10.5372C8.37084 10.3342 8.36284 10.2482 8.45784 9.91717C8.78284 8.79617 9.55384 7.77517 10.5838 7.18117C11.6018 6.57317 12.8698 6.34917 14.0488 6.60417C15.2298 6.85517 16.3238 7.56917 17.0428 8.57017C17.3998 9.07317 17.6688 9.64217 17.8278 10.2442C17.9048 10.5462 17.9588 10.8532 17.9848 11.1632L17.9998 11.6062L17.9948 11.8742C17.9768 13.3042 17.9358 14.7342 17.8118 16.1642C17.7158 17.2722 16.7558 18.0902 15.6688 17.9932C14.6988 17.9052 13.9548 17.1182 13.8738 16.1632Z" fill="url(#paint9_linear_245_3088)"/>
<defs>
<linearGradient id="paint0_linear_245_3088" x1="1.618" y1="1.618" x2="44.429" y2="44.429" gradientUnits="userSpaceOnUse">
<stop stop-color="#2AA4F4"/>
<stop offset="1" stop-color="#007AD9"/>
</linearGradient>
<linearGradient id="paint1_linear_245_3088" x1="10.044" y1="10.044" x2="40.309" y2="40.309" gradientUnits="userSpaceOnUse">
<stop stop-color="#FED100"/>
<stop offset="1" stop-color="#E38101"/>
</linearGradient>
<linearGradient id="paint2_linear_245_3088" x1="27.3495" y1="11.381" x2="25.5265" y2="17.087" gradientUnits="userSpaceOnUse">
<stop stop-color="#F44F5A"/>
<stop offset="0.443" stop-color="#EE3D4A"/>
<stop offset="1" stop-color="#E52030"/>
</linearGradient>
<linearGradient id="paint3_linear_245_3088" x1="23.5" y1="9.529" x2="23.5" y2="21.635" gradientUnits="userSpaceOnUse">
<stop stop-color="#A34F27"/>
<stop offset="0.587" stop-color="#8B3817"/>
<stop offset="1" stop-color="#802D10"/>
</linearGradient>
<linearGradient id="paint4_linear_245_3088" x1="31.173" y1="10.6649" x2="26.702" y2="19.9589" gradientUnits="userSpaceOnUse">
<stop stop-color="#A34F27"/>
<stop offset="0.587" stop-color="#8B3817"/>
<stop offset="1" stop-color="#802D10"/>
</linearGradient>
<linearGradient id="paint5_linear_245_3088" x1="8.6626" y1="26.9549" x2="15.2516" y2="22.0719" gradientUnits="userSpaceOnUse">
<stop stop-color="#F44F5A"/>
<stop offset="0.443" stop-color="#EE3D4A"/>
<stop offset="1" stop-color="#E52030"/>
</linearGradient>
<linearGradient id="paint6_linear_245_3088" x1="8.66815" y1="31.8012" x2="18.3731" y2="21.6832" gradientUnits="userSpaceOnUse">
<stop stop-color="#A34F27"/>
<stop offset="0.587" stop-color="#8B3817"/>
<stop offset="1" stop-color="#802D10"/>
</linearGradient>
<linearGradient id="paint7_linear_245_3088" x1="3.71982" y1="24.5449" x2="17.5428" y2="19.3689" gradientUnits="userSpaceOnUse">
<stop stop-color="#A34F27"/>
<stop offset="0.587" stop-color="#8B3817"/>
<stop offset="1" stop-color="#802D10"/>
</linearGradient>
<linearGradient id="paint8_linear_245_3088" x1="27.0003" y1="21.6902" x2="27.0003" y2="35.9902" gradientUnits="userSpaceOnUse">
<stop stop-color="#F44F5A"/>
<stop offset="0.443" stop-color="#EE3D4A"/>
<stop offset="1" stop-color="#E52030"/>
</linearGradient>
<linearGradient id="paint9_linear_245_3088" x1="12.9998" y1="5.86617" x2="12.9998" y2="19.2042" gradientUnits="userSpaceOnUse">
<stop stop-color="#F44F5A"/>
<stop offset="0.443" stop-color="#EE3D4A"/>
<stop offset="1" stop-color="#E52030"/>
</linearGradient>
</defs>
</svg>
