<svg width="16" height="16" viewBox="0 0 16 16" fill="none" xmlns="http://www.w3.org/2000/svg">
<path d="M2.92855 11.012C2.76489 13.0869 4.2515 14.7813 6.22909 14.7813H9.49553C11.7186 14.7813 13.2461 12.893 12.8779 10.5812C12.4892 8.15458 10.2661 6.16587 7.92709 6.16587C5.39032 6.16587 3.13995 8.34843 2.92855 11.012ZM7.06104 4.37099C7.51319 4.37099 7.94682 4.18189 8.26654 3.84529C8.58625 3.50868 8.76587 3.05215 8.76587 2.57612C8.76587 2.10009 8.58625 1.64356 8.26654 1.30696C7.94682 0.970352 7.51319 0.78125 7.06104 0.78125C6.6089 0.78125 6.17527 0.970352 5.85555 1.30696C5.53584 1.64356 5.35622 2.10009 5.35622 2.57612C5.35622 3.05215 5.53584 3.50868 5.85555 3.84529C6.17527 4.18189 6.6089 4.37099 7.06104 4.37099ZM11.7186 5.23253C12.0803 5.23253 12.4272 5.08125 12.683 4.81197C12.9388 4.54268 13.0825 4.17746 13.0825 3.79663C13.0825 3.41581 12.9388 3.05058 12.683 2.7813C12.4272 2.51202 12.0803 2.36074 11.7186 2.36074C11.3569 2.36074 11.01 2.51202 10.7542 2.7813C10.4985 3.05058 10.3548 3.41581 10.3548 3.79663C10.3548 4.17746 10.4985 4.54268 10.7542 4.81197C11.01 5.08125 11.3569 5.23253 11.7186 5.23253ZM14.2418 8.10433C14.3761 8.10433 14.5091 8.07647 14.6332 8.02235C14.7573 7.96823 14.8701 7.88891 14.965 7.7889C15.06 7.6889 15.1354 7.57018 15.1868 7.43952C15.2382 7.30887 15.2646 7.16883 15.2646 7.0274C15.2646 6.88598 15.2382 6.74594 15.1868 6.61528C15.1354 6.48462 15.06 6.36591 14.965 6.2659C14.8701 6.1659 14.7573 6.08658 14.6332 6.03246C14.5091 5.97834 14.3761 5.95048 14.2418 5.95048C13.9705 5.95048 13.7103 6.06394 13.5185 6.2659C13.3266 6.46787 13.2189 6.74179 13.2189 7.0274C13.2189 7.31302 13.3266 7.58694 13.5185 7.7889C13.7103 7.99087 13.9705 8.10433 14.2418 8.10433ZM2.62851 6.66843C2.99022 6.66843 3.33713 6.51715 3.5929 6.24787C3.84867 5.97858 3.99236 5.61336 3.99236 5.23253C3.99236 4.85171 3.84867 4.48648 3.5929 4.2172C3.33713 3.94792 2.99022 3.79663 2.62851 3.79663C2.26679 3.79663 1.91989 3.94792 1.66411 4.2172C1.40834 4.48648 1.26465 4.85171 1.26465 5.23253C1.26465 5.61336 1.40834 5.97858 1.66411 6.24787C1.91989 6.51715 2.26679 6.66843 2.62851 6.66843Z" stroke="#F8F8F9" stroke-linecap="round" stroke-linejoin="round"/>
</svg>
