<svg width="103" height="102" viewBox="0 0 103 102" fill="none" xmlns="http://www.w3.org/2000/svg">
<path d="M87.6508 9.44202H71.1992C65.2355 11.8069 63.9135 7.79688 51.4574 7.79688C39.0012 7.79688 37.6792 11.8069 31.7154 9.44202H15.2639L13.0703 50.7769C14.4413 67.0228 24.5178 75.8655 32.4696 79.0873H70.4453C78.3969 75.8655 88.4736 67.0228 89.8446 50.7769L87.6508 9.44202Z" fill="#F5DCB4"/>
<path d="M71.2031 9.43873C89.7267 14.9832 79.6426 43.5759 91.5699 55.9352C93.2821 57.7094 96.3075 56.9213 97.0221 54.5616C97.9664 51.4436 98.9095 46.511 98.7595 39.463C98.5539 29.7977 102.461 29.1809 102.461 29.1809C102.461 29.1809 97.5257 6.14844 82.7192 6.14844C77.7837 6.14844 71.2031 9.43873 71.2031 9.43873Z" fill="#965A50"/>
<path d="M34.1799 52.2126C31.0129 52.2126 28.4219 49.6215 28.4219 46.4546V43.1643C28.4219 39.9973 31.0129 37.4062 34.1799 37.4062C37.3469 37.4062 39.9379 39.9973 39.9379 43.1643V46.4546C39.9381 49.6217 37.3469 52.2126 34.1799 52.2126Z" fill="#4B3F4E"/>
<path d="M34.1819 37.4062C33.9005 37.4062 33.6303 37.4503 33.3594 37.4897V45.632C33.3594 47.4491 34.8326 48.9223 36.6497 48.9223C38.4669 48.9223 39.94 47.4491 39.94 45.632V43.1645C39.9402 39.9977 37.3489 37.4062 34.1819 37.4062Z" fill="#5D5360"/>
<path d="M34.1865 43.9823C35.5494 43.9823 36.6542 42.8775 36.6542 41.5146C36.6542 40.1517 35.5494 39.0469 34.1865 39.0469C32.8236 39.0469 31.7188 40.1517 31.7188 41.5146C31.7188 42.8775 32.8236 43.9823 34.1865 43.9823Z" fill="white"/>
<path d="M68.7268 52.2126C65.5598 52.2126 62.9688 49.6215 62.9688 46.4546V43.1643C62.9688 39.9973 65.5598 37.4062 68.7268 37.4062C71.8937 37.4062 74.4848 39.9973 74.4848 43.1643V46.4546C74.4848 49.6217 71.8935 52.2126 68.7268 52.2126Z" fill="#4B3F4E"/>
<path d="M68.7288 37.4062C68.4473 37.4062 68.1772 37.4503 67.9062 37.4897V45.632C67.9062 47.4491 69.3795 48.9223 71.1965 48.9223C73.0138 48.9223 74.4868 47.4491 74.4868 45.632V43.1645C74.4868 39.9977 71.8956 37.4062 68.7288 37.4062Z" fill="#5D5360"/>
<path d="M68.7333 43.9823C70.0962 43.9823 71.2011 42.8775 71.2011 41.5146C71.2011 40.1517 70.0962 39.0469 68.7333 39.0469C67.3705 39.0469 66.2656 40.1517 66.2656 41.5146C66.2656 42.8775 67.3705 43.9823 68.7333 43.9823Z" fill="white"/>
<path d="M91.5699 55.9404C93.2821 57.7147 96.3075 56.9266 97.0221 54.5666C97.5636 52.7784 98.0977 50.3711 98.4325 47.3324C95.1984 45.7203 92.4377 40.5769 90.7393 31.8593C87.6546 16.0246 83.3361 7.18185 71.2031 9.44378C89.7267 14.9882 79.6426 43.5811 91.5699 55.9404Z" fill="#824641"/>
<path d="M32.4696 79.0826H40.2673C40.2673 79.0826 26.5746 69.8972 24.3124 53.6511C19.9119 22.0465 28.2882 12.5905 35.5332 10.1776C34.3855 10.2164 33.1934 10.0234 31.7156 9.4375H15.2639L13.0703 50.7722C14.4413 67.0181 24.5178 75.8608 32.4696 79.0826Z" fill="#E7C9A5"/>
<path d="M31.7111 9.43873C13.1876 14.9832 23.2718 43.5761 11.3444 55.9352C9.63213 57.7094 6.60679 56.9213 5.8922 54.5616C4.9479 51.4436 4.0048 46.511 4.15481 39.463C4.3604 29.7977 0.453125 29.1809 0.453125 29.1809C0.453125 29.1809 5.38857 6.14844 20.1951 6.14844C25.1306 6.14844 31.7111 9.43873 31.7111 9.43873Z" fill="#965A50"/>
<path d="M31.1605 9.17676C29.4911 8.4022 24.2843 6.14844 20.1951 6.14844C5.38857 6.14844 0.453125 29.1809 0.453125 29.1809C0.453125 29.1809 4.3604 29.7979 4.15481 39.4632C4.15202 39.5923 4.1558 39.7084 4.15381 39.8361C13.6209 3.91958 28.1682 7.91551 31.1605 9.17676Z" fill="#824641"/>
<path d="M51.4564 93.3364C61.4511 93.3364 69.5534 87.4443 69.5534 80.176C69.5534 72.9077 61.4511 67.0156 51.4564 67.0156C41.4617 67.0156 33.3594 72.9077 33.3594 80.176C33.3594 87.4443 41.4617 93.3364 51.4564 93.3364Z" fill="#BC8E78"/>
<path d="M43.2344 80.1797V88.4054C43.2344 92.9484 46.9171 96.6312 51.4601 96.6312C56.0031 96.6312 59.6859 92.9484 59.6859 88.4054V80.1797H43.2344Z" fill="#FF8087"/>
<path d="M43.2344 86.6051C45.6132 86.3071 47.8578 85.5833 49.815 84.489V86.7605C49.815 87.6689 50.5517 88.4056 51.4601 88.4056C52.3686 88.4056 53.1053 87.6689 53.1053 86.7605V84.4681C55.0435 85.5741 57.294 86.3059 59.6859 86.6057V80.1797H43.2344V86.6051Z" fill="#E6646E"/>
<path d="M62.1474 65.375H40.7605C33.946 65.375 28.4219 69.4261 28.4219 74.4233C28.4219 79.4205 33.9462 83.4716 40.7605 83.4716C44.192 83.4716 47.2913 82.4419 49.5251 80.7826C50.0907 80.3626 50.7726 80.1526 51.4534 80.1526C52.1353 80.1526 52.8172 80.3624 53.3828 80.7826C55.6166 82.4419 58.7159 83.4716 62.1474 83.4716C68.9619 83.4716 74.486 79.4205 74.486 74.4233C74.4862 69.4261 68.9619 65.375 62.1474 65.375Z" fill="#D4AF91"/>
<path d="M51.4572 58.7969C56.9088 58.7969 61.3281 61.7431 61.3281 65.3775C61.3281 68.8825 57.1796 70.7281 54.1855 72.0927C52.4499 72.8838 50.4641 72.8838 48.7285 72.0927C45.7345 70.7281 41.5859 68.8825 41.5859 65.3775C41.5863 61.7433 46.0056 58.7969 51.4572 58.7969Z" fill="#5D5360"/>
<path d="M46.47 63.5737C46.2399 61.5032 47.6984 59.2891 47.6984 59.2891C44.1118 60.275 41.5859 62.6262 41.5859 65.373C41.5859 68.8779 45.7345 70.7234 48.7285 72.0883C50.4639 72.8792 52.4499 72.8792 54.1855 72.0883C54.8294 71.7948 55.5267 71.4769 56.2245 71.1272C52.1766 70.4114 46.9326 67.7381 46.47 63.5737Z" fill="#4B3F4E"/>
</svg>
