<svg width="143" height="119" viewBox="0 0 143 119" fill="none" xmlns="http://www.w3.org/2000/svg">
<g clip-path="url(#clip0_2_4663)">
<path d="M36.3867 60.2666C36.3867 60.2666 21.7566 41.8307 8.14869 45.8647C8.14869 45.8647 0.248025 47.906 0.537037 53.1448C0.537037 53.1448 6.00088 55.3869 9.98316 52.083C9.98316 52.083 14.9967 49.4302 22.1734 59.9198C22.1734 59.9198 36.7791 81.2975 47.217 67.7992L36.3897 60.2697L36.3867 60.2666Z" fill="#905827"/>
<path d="M108.618 102.807C108.618 102.807 112.923 112.518 123.291 113.157C139.08 114.131 142.049 100.897 142.049 100.897C142.049 100.897 141.937 118.095 121.748 118.095C108.15 118.095 102.15 107.903 102.15 107.903L108.618 102.807Z" fill="#C4763E"/>
<path d="M33.6909 29.6013C33.6909 29.6013 17.5398 78.8732 57.8888 85.6483C57.8888 85.6483 80.8729 91.3007 80.8729 118.085H106.169C106.169 118.085 112.43 109.052 113.175 98.4043C114.28 82.6547 105.013 69.418 92.6858 60.1818C89.1599 57.5381 85.3875 55.2321 81.4904 53.1816C74.9466 49.7378 68.561 47.4866 63.3983 41.9741C58.1748 36.3976 54.7188 29.3275 53.9735 21.6885L33.6909 29.5983V29.6013Z" fill="#D68045"/>
<path d="M91.8812 77.8993C46.1322 67.8083 85.599 107.89 85.599 107.89L102.301 116.289C111.933 80.8412 91.8781 77.9024 91.8781 77.9024L91.8812 77.8993Z" fill="#C4763E"/>
<path d="M72.3475 81.2332C25.3694 78.2852 36.2605 37.7993 39.0624 26.251L33.6929 29.6066C33.6929 29.6066 17.5417 78.8785 57.8908 85.6535C57.8908 85.6535 80.8748 91.306 80.8748 118.09H89.5269L89.7186 111.36C95.1003 83.9712 72.3475 81.2332 72.3475 81.2332Z" fill="#C4763E"/>
<path d="M41.6888 41.767C37.5087 41.767 33.6451 40.8817 30.9223 39.242C30.3048 38.8708 30.107 38.0677 30.4782 37.4531C30.8493 36.8356 31.6525 36.6378 32.267 37.009C35.2849 38.8282 40.0521 39.5584 45.017 38.959C50.0366 38.3536 54.5209 36.4888 57.0064 33.9667C57.5114 33.4556 58.3389 33.4496 58.85 33.9546C59.3641 34.4596 59.3672 35.284 58.8621 35.7982C55.9751 38.7248 50.9158 40.8726 45.3273 41.548C44.1013 41.697 42.8783 41.767 41.6827 41.767H41.6888Z" fill="#BE1E2D"/>
<path d="M106.174 118.092H67.078C67.078 118.092 66.7251 108.99 75.8639 109.692H89.4718C89.4718 109.692 50.002 69.611 95.754 79.7021C95.754 79.7021 113.372 81.0559 106.177 118.089L106.174 118.092Z" fill="#D68045"/>
<path d="M48.0477 118.091H36.5541C36.5541 118.091 35.2429 114.203 42.669 112.08C42.669 112.08 58.4764 105.928 40.1075 60.5352H56.1035C56.1035 60.5352 68.0808 100.391 48.0477 118.088V118.091Z" fill="#D68045"/>
<path d="M89.4648 110.129H79.8331C79.5928 110.129 79.3981 109.934 79.3981 109.694C79.3981 109.454 79.5928 109.259 79.8331 109.259H88.4426C84.871 105.499 69.7572 88.8791 73.9433 81.3101C76.1885 77.2548 83.5537 76.5703 95.8413 79.2809C96.0755 79.3326 96.2246 79.5638 96.1729 79.7981C96.1212 80.0323 95.893 80.1844 95.6557 80.1297C83.791 77.5134 76.7422 78.0518 74.7069 81.7329C70.3839 89.5515 89.5834 109.195 89.7781 109.393L90.5052 110.132H89.4678L89.4648 110.129Z" fill="#905827"/>
<path d="M59.6511 86.348C59.4107 86.348 59.216 86.1533 59.216 85.9129C59.2039 72.5423 55.7175 60.778 55.681 60.6624C55.611 60.4343 55.7418 60.1909 55.973 60.1209C56.2012 60.0509 56.4446 60.1818 56.5145 60.413C56.551 60.5316 60.0739 72.4115 60.0861 85.9129C60.0861 86.1533 59.8914 86.348 59.6511 86.348Z" fill="#905827"/>
<path d="M47.1617 82.5847C46.964 82.5847 46.7845 82.4478 46.7388 82.247C45.2725 75.8674 42.9056 68.6178 39.7022 60.6989C39.6109 60.4768 39.7204 60.2212 39.9425 60.133C40.1646 60.0448 40.4171 60.1513 40.5083 60.3734C43.7301 68.3349 46.1121 75.6301 47.5876 82.0523C47.6424 82.2865 47.4963 82.5208 47.2621 82.5725C47.2286 82.5816 47.1952 82.5847 47.1647 82.5847H47.1617Z" fill="#905827"/>
<path d="M41.8608 33.432C39.4787 33.4654 37.0784 33.2099 34.7632 32.7475C30.8874 31.9747 27.1242 30.6483 23.5648 28.9416C20.6534 27.5452 15.7919 25.6104 14.8366 22.2122C14.1035 19.605 14.1613 16.2981 14.502 13.6331C14.7423 11.7652 15.4481 10.7339 17.386 10.3719C19.6069 9.95508 28.4445 10.2441 30.6623 9.83948C33.8414 9.26145 35.0827 6.51736 37.054 4.37868C41.6204 -0.577113 49.9774 -1.41373 55.5416 2.3343C63.7009 7.82856 62.8217 21.7954 56.3052 28.0685C52.3534 31.8713 47.1542 33.365 41.8608 33.435V33.432Z" fill="#D68045"/>
<path d="M21.2426 13.867C20.9627 15.1843 20.0865 16.3251 18.9153 16.9792C17.7957 17.6059 16.0708 17.9253 14.9452 17.1465C13.8469 16.3859 13.7222 14.8222 13.7648 13.6053C13.8043 12.4432 13.9777 10.9495 15.0668 10.2711C15.4593 10.0246 15.9187 9.92729 16.375 9.88166C17.2055 9.80256 18.1669 9.79344 18.9883 9.95163C20.8623 10.3167 21.6198 12.0903 21.2456 13.8639L21.2426 13.867Z" fill="#3B2314"/>
<path d="M39.2684 14.4973C38.9246 15.5559 38.0333 16.2131 37.2788 15.9666C36.5274 15.7233 36.1988 14.6646 36.5426 13.6059C36.8863 12.5533 37.7777 11.8961 38.5261 12.1395C39.2806 12.3859 39.6122 13.4416 39.2684 14.4942V14.4973Z" fill="#3B2314"/>
<path d="M52.4699 6.0957C52.9627 7.90279 52.8106 9.85894 52.0409 11.5717C51.2773 13.2754 49.957 14.6961 48.9074 16.2628C45.7892 20.9174 43.7722 31.5348 51.4599 33.7587C56.0993 35.1003 59.5826 31.8725 61.3745 28.3101C63.498 24.0844 63.8509 19.1347 62.1624 14.7083C60.7448 10.9846 57.3131 6.14438 52.4699 6.0957Z" fill="#905827"/>
</g>
<defs>
<clipPath id="clip0_2_4663">
<rect width="141.524" height="118.096" fill="white" transform="translate(0.525391)"/>
</clipPath>
</defs>
</svg>
