<svg width="60" height="60" viewBox="0 0 60 60" fill="none" xmlns="http://www.w3.org/2000/svg">
<path d="M30 58C45.464 58 58 45.464 58 30C58 14.536 45.464 2 30 2C14.536 2 2 14.536 2 30C2 45.464 14.536 58 30 58Z" fill="#6A330C" stroke="white" stroke-width="4"/>
<path fill-rule="evenodd" clip-rule="evenodd" d="M26.6679 36.136L34.478 26.0361C34.9025 25.4914 35.0534 24.8617 34.9119 24.2206C34.7893 23.6377 34.4309 23.0835 33.8932 22.663L32.5821 21.6215C31.4407 20.7138 30.0259 20.8093 29.2147 21.8508L28.3375 22.9889C28.2243 23.1312 28.2526 23.3415 28.3941 23.4561C28.3941 23.4561 30.6107 25.2334 30.6579 25.2716C30.8088 25.415 30.922 25.6061 30.9503 25.8354C30.9974 26.2845 30.6861 26.7049 30.224 26.7623C30.007 26.7909 29.7995 26.724 29.6486 26.5998L27.3187 24.7461C27.2056 24.6611 27.0358 24.6792 26.9414 24.7939L21.4046 31.9604C21.0461 32.4095 20.9235 32.9923 21.0461 33.5561L21.7536 36.6233C21.7913 36.7858 21.9328 36.9004 22.1026 36.9004L25.2153 36.8622C25.7812 36.8527 26.3095 36.5947 26.6679 36.136ZM31.0264 35.1809H36.1021C36.5973 35.1809 37 35.5889 37 36.0905C37 36.5931 36.5973 37.0002 36.1021 37.0002H31.0264C30.5312 37.0002 30.1285 36.5931 30.1285 36.0905C30.1285 35.5889 30.5312 35.1809 31.0264 35.1809Z" fill="white"/>
</svg>
