<svg width="23" height="24" viewBox="0 0 23 24" fill="none" xmlns="http://www.w3.org/2000/svg">
<g clip-path="url(#clip0_2_2001)">
<path d="M11.5 23.5C17.8513 23.5 23 18.3513 23 12C23 5.64873 17.8513 0.5 11.5 0.5C5.14873 0.5 0 5.64873 0 12C0 18.3513 5.14873 23.5 11.5 23.5Z" fill="#3B5998"/>
<path d="M14.3897 12.4502H12.3377V19.9679H9.22865V12.4502H7.75V9.8082H9.22865V8.09852C9.22865 6.87591 9.80941 4.96143 12.3653 4.96143L14.6683 4.97106V7.53559H12.9973C12.7233 7.53559 12.3379 7.67253 12.3379 8.25575V9.81066H14.6613L14.3897 12.4502Z" fill="white"/>
</g>
<defs>
<clipPath id="clip0_2_2001">
<rect width="23" height="23" fill="white" transform="translate(0 0.5)"/>
</clipPath>
</defs>
</svg>
