<svg width="40" height="35" viewBox="0 0 40 35" fill="none" xmlns="http://www.w3.org/2000/svg">
<path d="M17.4441 3.69444C17.116 3.69916 16.7902 3.74976 16.4761 3.84478C16.3072 3.04792 15.8698 2.33327 15.2369 1.82047C14.604 1.30766 13.8142 1.02783 12.9997 1.02783C12.1851 1.02783 11.3953 1.30766 10.7624 1.82047C10.1296 2.33327 9.69208 3.04792 9.52322 3.84478C9.20914 3.74976 8.88332 3.69916 8.55522 3.69444C7.88357 3.69414 7.22558 3.88408 6.65742 4.24227C6.08927 4.60046 5.63418 5.11225 5.34485 5.71838C5.05553 6.32451 4.9438 7.00019 5.02261 7.6672C5.10141 8.3342 5.36753 8.96524 5.79014 9.48726C6.21275 10.0093 6.77458 10.4009 7.41057 10.6168C8.04655 10.8328 8.73069 10.8641 9.38377 10.7073C10.0369 10.5505 10.6322 10.2119 11.1008 9.73076C11.5694 9.24961 11.8921 8.64557 12.0316 7.98857C12.6614 8.18899 13.3379 8.18899 13.9676 7.98857C14.1073 8.64532 14.43 9.2491 14.8986 9.73002C15.3671 10.2109 15.9623 10.5493 16.6152 10.706C17.2681 10.8627 17.952 10.8313 18.5878 10.6154C19.2236 10.3995 19.7852 10.0079 20.2077 9.48609C20.6302 8.96424 20.8962 8.33341 20.975 7.66663C21.0539 6.99984 20.9422 6.32436 20.6531 5.71838C20.3639 5.11241 19.9091 4.60071 19.3412 4.24253C18.7732 3.88434 18.1155 3.69431 17.4441 3.69444Z" fill="#107C42"/>
<path d="M34.2088 7.32696C33.9735 7.09829 33.7073 6.90368 33.418 6.74877C33.8621 6.06591 34.0581 5.25122 33.9732 4.44111C33.8883 3.631 33.5277 2.87464 32.9517 2.29867C32.3757 1.7227 31.6194 1.36208 30.8093 1.27719C29.9991 1.19229 29.1845 1.38828 28.5016 1.83234C28.3467 1.54307 28.1521 1.27689 27.9234 1.04155C27.4487 0.566415 26.8491 0.235454 26.1941 0.0869839C25.5391 -0.0614859 24.8554 -0.0213906 24.2222 0.202626C23.589 0.426644 23.0322 0.82542 22.6163 1.35279C22.2004 1.88015 21.9424 2.51454 21.8721 3.18249C21.8018 3.85044 21.9221 4.52464 22.2191 5.12703C22.5162 5.72943 22.9778 6.23537 23.5504 6.58628C24.1231 6.93719 24.7835 7.11872 25.4551 7.10985C26.1266 7.10099 26.782 6.90208 27.3452 6.53617C27.6488 7.12324 28.1271 7.60158 28.7142 7.90517C28.3485 8.4683 28.1498 9.12347 28.1411 9.79484C28.1323 10.4662 28.3139 11.1263 28.6648 11.6988C29.0157 12.2713 29.5215 12.7326 30.1237 13.0295C30.7259 13.3264 31.3999 13.4467 32.0677 13.3765C32.7354 13.3062 33.3696 13.0483 33.8968 12.6325C34.424 12.2167 34.8227 11.6602 35.0468 11.0272C35.2708 10.3943 35.311 9.71082 35.1627 9.05597C35.0144 8.40112 34.6837 7.80164 34.2088 7.32696Z" fill="#107C42"/>
<path d="M15.9581 8.98595C17.0808 7.86319 17.3366 6.29864 16.5294 5.49143C15.7222 4.68422 14.1576 4.94001 13.0349 6.06277C11.9121 7.18553 11.6563 8.75008 12.4635 9.55729C13.2708 10.3645 14.8353 10.1087 15.9581 8.98595Z" fill="#343434"/>
<path d="M34 10C35.6569 10 37 9.10457 37 8C37 6.89543 35.6569 6 34 6C32.3431 6 31 6.89543 31 8C31 9.10457 32.3431 10 34 10Z" fill="#343434"/>
<path d="M10.9749 7.17495L8.14652 10.0034C7.95126 10.1986 7.95126 10.5152 8.14652 10.7105L10.2678 12.8318C10.4631 13.0271 10.7797 13.0271 10.9749 12.8318L13.8034 10.0034C13.9986 9.80812 13.9986 9.49154 13.8034 9.29627L11.6821 7.17495C11.4868 6.97969 11.1702 6.97969 10.9749 7.17495Z" fill="url(#paint0_linear_245_3042)"/>
<path d="M32.8539 9.02817L30.0254 6.19975C29.8302 6.00448 29.5136 6.00448 29.3183 6.19974L27.197 8.32107C27.0017 8.51633 27.0017 8.83291 27.197 9.02817L30.0254 11.8566C30.2207 12.0519 30.5373 12.0519 30.7325 11.8566L32.8539 9.73528C33.0491 9.54002 33.0491 9.22344 32.8539 9.02817Z" fill="url(#paint1_linear_245_3042)"/>
<path d="M37.1763 8.04828C37.2415 8.02885 37.3101 8.02286 37.3777 8.03067C37.4454 8.03848 37.5108 8.05994 37.5699 8.09374C37.629 8.12754 37.6807 8.17299 37.7217 8.22733C37.7628 8.28167 37.7924 8.34377 37.8088 8.40988C38.2481 10.3928 37.9167 12.4686 36.8819 14.2163C35.8472 15.9639 34.1864 17.2526 32.2365 17.8209C30.2866 18.3893 28.1936 18.1947 26.3818 17.2768C24.5701 16.3588 23.1753 14.7861 22.4804 12.8777C22.4587 12.8131 22.4503 12.7448 22.4557 12.6769C22.4611 12.609 22.4803 12.543 22.512 12.4827C22.5437 12.4224 22.5873 12.3692 22.6402 12.3262C22.693 12.2833 22.7541 12.2515 22.8196 12.2329L37.1763 8.04828Z" fill="#E52030"/>
<path d="M35.253 8.60848C35.3183 8.58861 35.387 8.58237 35.4548 8.59017C35.5227 8.59797 35.5882 8.61964 35.6473 8.65382C35.7064 8.688 35.7578 8.73396 35.7984 8.78886C35.839 8.84376 35.8679 8.90642 35.8832 8.97295C36.175 10.4445 35.9049 11.972 35.1263 13.2543C34.3476 14.5366 33.1168 15.4807 31.6765 15.9005C30.2363 16.3203 28.691 16.1854 27.3453 15.5223C25.9996 14.8591 24.9511 13.716 24.4065 12.3181C24.3837 12.2537 24.3744 12.1854 24.3791 12.1173C24.3839 12.0492 24.4026 11.9827 24.4341 11.9222C24.4655 11.8616 24.5091 11.8081 24.5622 11.7651C24.6152 11.7221 24.6765 11.6904 24.7422 11.6721L35.253 8.60848Z" fill="url(#paint2_linear_245_3042)"/>
<path d="M28.7232 4.19567C28.7232 4.19567 19.4447 2.73729 13.7984 8.41832C9.4499 12.7935 10.8236 16.8042 13.5035 19.509C16.1918 22.2054 20.1779 23.5875 24.5265 19.2122C30.611 13.0903 28.7232 4.19567 28.7232 4.19567Z" fill="#21A366"/>
<path d="M28.7237 4.1958L13.5039 19.5091C16.1922 22.2055 20.1783 23.5876 24.5269 19.2124C30.6115 13.0904 28.7237 4.1958 28.7237 4.1958Z" fill="#33C481"/>
<path d="M15.2884 15.7516C15.3368 15.7995 15.375 15.8567 15.4007 15.9198C15.4264 15.9828 15.439 16.0505 15.4378 16.1186C15.4366 16.1867 15.4216 16.2538 15.3937 16.3159C15.3658 16.3781 15.3256 16.4339 15.2756 16.48C13.7483 17.819 11.769 18.527 9.73905 18.4605C7.70907 18.3939 5.7804 17.5577 4.34422 16.1215C2.90803 14.6853 2.07186 12.7567 2.00528 10.7267C1.9387 8.69669 2.64671 6.71738 3.9857 5.19018C4.03185 5.14009 4.08769 5.09988 4.14982 5.07199C4.21196 5.0441 4.2791 5.02911 4.3472 5.02791C4.4153 5.02671 4.48293 5.03934 4.54601 5.06504C4.60908 5.09073 4.66629 5.12895 4.71417 5.17739L15.2884 15.7516Z" fill="#E52030"/>
<path d="M20.5 12H16.5C16.2239 12 16 12.2239 16 12.5V15.5C16 15.7761 16.2239 16 16.5 16H20.5C20.7761 16 21 15.7761 21 15.5V12.5C21 12.2239 20.7761 12 20.5 12Z" fill="url(#paint3_linear_245_3042)"/>
<path d="M13.8719 14.3354C13.9208 14.3831 13.9593 14.4403 13.9851 14.5035C14.0109 14.5668 14.0234 14.6346 14.0219 14.7029C14.0203 14.7711 14.0048 14.8384 13.9762 14.9004C13.9475 14.9623 13.9065 15.0178 13.8556 15.0633C12.7057 16.0269 11.2366 16.5249 9.73783 16.4591C8.23902 16.3932 6.81927 15.7682 5.75843 14.7074C4.69759 13.6466 4.07264 12.2268 4.00677 10.728C3.94089 9.22919 4.43888 7.76008 5.40256 6.61027C5.44802 6.55933 5.50347 6.51828 5.56547 6.48967C5.62746 6.46107 5.69468 6.44551 5.76294 6.44397C5.8312 6.44244 5.89904 6.45495 5.96226 6.48074C6.02548 6.50653 6.08273 6.54504 6.13044 6.59388L13.8719 14.3354Z" fill="url(#paint4_linear_245_3042)"/>
<path d="M28.5104 15.51C29.2914 14.729 29.0144 13.1857 27.8916 12.0629C26.7689 10.9401 25.2255 10.6631 24.4445 11.4442C23.6634 12.2252 23.9404 13.7686 25.0632 14.8913C26.186 16.0141 27.7293 16.2911 28.5104 15.51Z" fill="#343434"/>
<path d="M11 29H29V33C29 33.5304 28.7893 34.0391 28.4142 34.4142C28.0391 34.7893 27.5304 35 27 35H13C12.4696 35 11.9609 34.7893 11.5858 34.4142C11.2107 34.0391 11 33.5304 11 33V29Z" fill="url(#paint5_linear_245_3042)"/>
<path d="M1 14H39C39.2652 14 39.5196 14.1054 39.7071 14.2929C39.8946 14.4804 40 14.7348 40 15C40 17.2325 39.5603 19.4431 38.706 21.5056C37.8516 23.5682 36.5994 25.4422 35.0208 27.0208C33.4422 28.5994 31.5682 29.8516 29.5056 30.706C27.4431 31.5603 25.2325 32 23 32H17C12.4913 32 8.1673 30.2089 4.97919 27.0208C1.79107 23.8327 0 19.5087 0 15C0 14.7348 0.105357 14.4804 0.292893 14.2929C0.48043 14.1054 0.734784 14 1 14Z" fill="url(#paint6_linear_245_3042)"/>
<defs>
<linearGradient id="paint0_linear_245_3042" x1="8.94395" y1="6.92438" x2="12.6499" y2="12.5424" gradientUnits="userSpaceOnUse">
<stop stop-color="#FAF8E5"/>
<stop offset="1" stop-color="#FAEEAC"/>
</linearGradient>
<linearGradient id="paint1_linear_245_3042" x1="31.8414" y1="6.67717" x2="27.5474" y2="12.2362" gradientUnits="userSpaceOnUse">
<stop stop-color="#FAF8E5"/>
<stop offset="1" stop-color="#FAEEAC"/>
</linearGradient>
<linearGradient id="paint2_linear_245_3042" x1="30.187" y1="4.85098" x2="30.187" y2="19.116" gradientUnits="userSpaceOnUse">
<stop stop-color="#F44F5A"/>
<stop offset="0.443" stop-color="#EE3D4A"/>
<stop offset="1" stop-color="#E52030"/>
</linearGradient>
<linearGradient id="paint3_linear_245_3042" x1="14.6428" y1="14.9393" x2="12.105" y2="21.8852" gradientUnits="userSpaceOnUse">
<stop stop-color="#FAF8E5"/>
<stop offset="1" stop-color="#FAEEAC"/>
</linearGradient>
<linearGradient id="paint4_linear_245_3042" x1="0.867298" y1="5.57332" x2="12.4593" y2="17.1653" gradientUnits="userSpaceOnUse">
<stop stop-color="#F44F5A"/>
<stop offset="0.443" stop-color="#EE3D4A"/>
<stop offset="1" stop-color="#E52030"/>
</linearGradient>
<linearGradient id="paint5_linear_245_3042" x1="20" y1="31" x2="20" y2="35.985" gradientUnits="userSpaceOnUse">
<stop offset="0.018" stop-color="#005AB3"/>
<stop offset="0.497" stop-color="#007AD9"/>
<stop offset="1" stop-color="#2AA4F4"/>
</linearGradient>
<linearGradient id="paint6_linear_245_3042" x1="20" y1="12.426" x2="20" y2="35.684" gradientUnits="userSpaceOnUse">
<stop stop-color="#2AA4F4"/>
<stop offset="1" stop-color="#007AD9"/>
</linearGradient>
</defs>
</svg>
