<svg width="30" height="30" viewBox="0 0 30 30" fill="none" xmlns="http://www.w3.org/2000/svg">
<g clip-path="url(#clip0_90_265)">
<path d="M26.2501 15.287C26.2501 14.4373 26.1833 13.583 26.0409 12.7471H14.6133V17.5606H21.1573C20.8858 19.113 20.0132 20.4864 18.7356 21.359V24.4823H22.6398C24.9324 22.3052 26.2501 19.0901 26.2501 15.287Z" fill="#4285F4"/>
<path d="M14.6137 27.5002C17.8813 27.5002 20.6369 26.3933 22.6447 24.4826L18.7405 21.3593C17.6543 22.1218 16.252 22.5535 14.6182 22.5535C11.4574 22.5535 8.7775 20.3534 7.81593 17.3955H3.78711V20.6152C5.84381 24.8363 10.0329 27.5002 14.6137 27.5002Z" fill="#34A853"/>
<path d="M7.81119 17.3953C7.30369 15.8429 7.30369 14.1618 7.81119 12.6094V9.38965H3.78682C2.06845 12.9217 2.06845 17.083 3.78682 20.6151L7.81119 17.3953Z" fill="#FBBC04"/>
<path d="M14.6137 7.44659C16.341 7.41903 18.0104 8.08961 19.2613 9.32055L22.7203 5.75175C20.5301 3.62976 17.6231 2.46312 14.6137 2.49987C10.0329 2.49987 5.84381 5.16384 3.78711 9.38945L7.81148 12.6092C8.7686 9.64666 11.453 7.44659 14.6137 7.44659Z" fill="#EA4335"/>
</g>
<defs>
<clipPath id="clip0_90_265">
<rect width="23.75" height="25" fill="white" transform="translate(2.5 2.5)"/>
</clipPath>
</defs>
</svg>
