<svg width="48" height="48" viewBox="0 0 48 48" fill="none" xmlns="http://www.w3.org/2000/svg">
<path d="M10 5.0166H30C30.5304 5.0166 31.0391 5.22732 31.4142 5.60239C31.7893 5.97746 32 6.48617 32 7.0166V10.0166H8V7.0166C8 6.48617 8.21071 5.97746 8.58579 5.60239C8.96086 5.22732 9.46957 5.0166 10 5.0166Z" fill="url(#paint0_linear_245_2767)"/>
<path d="M33 44.0166H7C6.46957 44.0166 5.96086 43.8059 5.58579 43.4308C5.21071 43.0557 5 42.547 5 42.0166V15.9609C5 15.3399 5.14458 14.7275 5.42229 14.1721L8 9.0166H32L34.5777 14.1721C34.8554 14.7275 35 15.3399 35 15.9609V42.0166C35 42.547 34.7893 43.0557 34.4142 43.4308C34.0391 43.8059 33.5304 44.0166 33 44.0166Z" fill="url(#paint1_linear_245_2767)"/>
<path d="M20.0002 23.0166C18.8619 21.9764 18.1494 20.5513 18.0002 19.0166C18.1494 17.4819 18.862 16.0568 20.0002 15.0166C21.1384 16.0568 21.851 17.4819 22.0002 19.0166C21.851 20.5513 21.1385 21.9764 20.0002 23.0166ZM25.1034 26.238C25.9756 24.9664 26.3458 23.4168 26.1425 21.8883C24.6019 21.9535 23.1401 22.5871 22.0393 23.6669C21.1671 24.9385 20.7969 26.4881 21.0002 28.0166C22.5408 27.9514 24.0026 27.3178 25.1034 26.238ZM18.9537 28.0166C19.1571 26.4881 18.7869 24.9385 17.9147 23.6669C16.8139 22.5871 15.352 21.9535 13.8114 21.8883C13.6081 23.4168 13.9783 24.9664 14.8505 26.238C15.9513 27.3178 17.4132 27.9514 18.9537 28.0166ZM25.1034 33.238C25.9756 31.9664 26.3458 30.4168 26.1425 28.8883C24.6019 28.9535 23.1401 29.5871 22.0393 30.6669C21.1671 31.9385 20.7969 33.4881 21.0002 35.0166C22.5408 34.9514 24.0026 34.3178 25.1034 33.238ZM18.9389 35.0166C19.1423 33.4881 18.7721 31.9385 17.8999 30.6669C16.7991 29.5871 15.3372 28.9535 13.7966 28.8883C13.5933 30.4168 13.9635 31.9664 14.8357 33.238C15.9365 34.3178 17.3984 34.9514 18.9389 35.0166Z" fill="url(#paint2_linear_245_2767)"/>
<path d="M31 30.0166C28.0826 30.0166 25.2847 31.1755 23.2218 33.2384C21.1589 35.3013 20 38.0992 20 41.0166H42C42 38.0992 40.8411 35.3013 38.7782 33.2384C36.7153 31.1755 33.9174 30.0166 31 30.0166Z" fill="url(#paint3_linear_245_2767)"/>
<path d="M31 46.0166H31.003C23 46.0166 18 42.0166 18 40.0166C18 39.7514 18.1054 39.497 18.2929 39.3095C18.4804 39.122 18.7348 39.0166 19 39.0166H43C43.2652 39.0166 43.5196 39.122 43.7071 39.3095C43.8946 39.497 44 39.7514 44 40.0166C44 42.0166 39 46.0166 31 46.0166Z" fill="url(#paint4_linear_245_2767)"/>
<g opacity="0.05">
<path d="M31 29.0166C28.3405 29.0158 25.7562 29.8997 23.6543 31.5291C21.5524 33.1585 20.0522 35.4409 19.39 38.0166H19C18.47 38.0182 17.9622 38.2294 17.5875 38.6041C17.2128 38.9789 17.0015 39.4867 17 40.0166C17 41.2366 18.07 42.7166 19.96 44.0166H21.97C19.43 42.7266 18 41.0866 18 40.0166C18.0008 39.7517 18.1064 39.4978 18.2938 39.3104C18.4811 39.123 18.735 39.0174 19 39.0166H20.19C20.6564 36.4898 21.9929 34.2061 23.9676 32.562C25.9424 30.9179 28.4305 30.0173 31 30.0166C32.3694 30.0146 33.7268 30.2725 35 30.7766V29.7066C33.7165 29.2472 32.3632 29.0138 31 29.0166Z" fill="black"/>
</g>
<g opacity="0.07">
<path d="M31 29.5166C28.3846 29.5153 25.8471 30.4066 23.8069 32.043C21.7668 33.6795 20.3462 35.9632 19.78 38.5166H19C18.8029 38.5164 18.6078 38.555 18.4257 38.6303C18.2436 38.7056 18.0781 38.816 17.9388 38.9554C17.7994 39.0947 17.6889 39.2602 17.6136 39.4423C17.5384 39.6244 17.4997 39.8196 17.5 40.0166C17.5 41.1266 18.71 42.6966 20.93 44.0166H21.97C19.43 42.7266 18 41.0866 18 40.0166C18.0008 39.7517 18.1064 39.4978 18.2938 39.3104C18.4811 39.123 18.735 39.0174 19 39.0166H20.19C20.6564 36.4898 21.9929 34.2061 23.9676 32.562C25.9424 30.9179 28.4305 30.0173 31 30.0166C32.3694 30.0146 33.7268 30.2725 35 30.7766V30.2366C33.7209 29.7579 32.3658 29.5139 31 29.5166Z" fill="black"/>
</g>
<defs>
<linearGradient id="paint0_linear_245_2767" x1="20" y1="2.97306" x2="20" y2="13.1221" gradientUnits="userSpaceOnUse">
<stop stop-color="#EBA84B"/>
<stop offset="1" stop-color="#D97218"/>
</linearGradient>
<linearGradient id="paint1_linear_245_2767" x1="15.691" y1="4.46406" x2="24.203" y2="52.7371" gradientUnits="userSpaceOnUse">
<stop stop-color="#EBA84B"/>
<stop offset="1" stop-color="#D97218"/>
</linearGradient>
<linearGradient id="paint2_linear_245_2767" x1="19.9692" y1="10.9191" x2="19.9692" y2="44.1811" gradientUnits="userSpaceOnUse">
<stop stop-color="#C26715"/>
<stop offset="0.51" stop-color="#B85515"/>
<stop offset="1" stop-color="#AD3F16"/>
</linearGradient>
<linearGradient id="paint3_linear_245_2767" x1="31" y1="43.6361" x2="31" y2="26.6291" gradientUnits="userSpaceOnUse">
<stop stop-color="#F9F9F9"/>
<stop offset="0.26" stop-color="#F0F1F2"/>
<stop offset="0.678" stop-color="#D9DCDF"/>
<stop offset="1" stop-color="#C2C8CC"/>
</linearGradient>
<linearGradient id="paint4_linear_245_2767" x1="31" y1="37.6201" x2="31" y2="46.1511" gradientUnits="userSpaceOnUse">
<stop stop-color="#2AA4F4"/>
<stop offset="1" stop-color="#007AD9"/>
</linearGradient>
</defs>
</svg>
