<svg width="40" height="40" viewBox="0 0 40 40" fill="none" xmlns="http://www.w3.org/2000/svg">
<circle cx="20" cy="20" r="20" fill="#D9D9D9"/>
<path d="M27.222 26.6667C27.222 28.5078 25.7298 30 23.8887 30C23.7264 30 23.5681 29.9844 23.4126 29.9622C22.0053 29.7833 21.0009 28.8889 19.9998 28.8889C18.9987 28.8889 17.9942 29.7833 16.587 29.9622C16.4314 29.9844 16.2731 30 16.1109 30C14.2698 30 12.7776 28.5078 12.7776 26.6667C12.7776 24.8256 14.2698 23.3333 16.1109 23.3333C16.6664 23.3333 16.9442 23.0556 16.9442 22.5C16.9442 20.8122 18.312 19.4444 19.9998 19.4444C21.6876 19.4444 23.0553 20.8122 23.0553 22.5C23.0553 23.0556 23.3331 23.3333 23.8887 23.3333C25.7298 23.3333 27.222 24.8256 27.222 26.6667ZM19.4442 13.8889C19.4442 11.7411 18.2003 10 16.6664 10C15.1326 10 13.8887 11.7411 13.8887 13.8889C13.8887 16.0367 15.1326 17.7778 16.6664 17.7778C18.2003 17.7778 19.4442 16.0367 19.4442 13.8889ZM14.4442 20C14.4442 17.8522 13.2003 16.1111 11.6664 16.1111C10.1326 16.1111 8.88867 17.8522 8.88867 20C8.88867 22.1478 10.1326 23.8889 11.6664 23.8889C13.2003 23.8889 14.4442 22.1478 14.4442 20ZM31.1109 20C31.1109 17.8522 29.867 16.1111 28.3331 16.1111C26.7992 16.1111 25.5553 17.8522 25.5553 20C25.5553 22.1478 26.7992 23.8889 28.3331 23.8889C29.867 23.8889 31.1109 22.1478 31.1109 20ZM26.1109 13.8889C26.1109 11.7411 24.867 10 23.3331 10C21.7992 10 20.5553 11.7411 20.5553 13.8889C20.5553 16.0367 21.7992 17.7778 23.3331 17.7778C24.867 17.7778 26.1109 16.0367 26.1109 13.8889Z" fill="#9E9E9E"/>
</svg>
