<svg width="36" height="39" viewBox="0 0 36 39" fill="none" xmlns="http://www.w3.org/2000/svg">
<path d="M0.5 36H35.5C35.776 36 36 36.224 36 36.5V38.483C36 38.759 35.776 38.983 35.5 38.983H0.5C0.224 38.983 0 38.759 0 38.483V36.5C0 36.223 0.224 36 0.5 36Z" fill="url(#paint0_linear_245_2861)"/>
<path d="M32.3741 13.1398L28.9472 7.15804V1.78965C28.9573 1.39198 28.833 1.00252 28.5943 0.684284C28.3556 0.366043 28.0166 0.137625 27.632 0.0359744H27.623C27.5146 0.0103571 27.4034 -0.00166503 27.292 0.000185156H8.36841C8.21698 -0.00163328 8.06615 0.0194832 7.92104 0.0628166C7.53754 0.161121 7.19759 0.384099 6.95464 0.696689C6.7117 1.00928 6.57954 1.39375 6.57894 1.78965V7.15804L3.16107 13.1309C3.05393 13.3669 2.999 13.6232 3.00001 13.8824V32.2105C3.00141 32.6847 3.19039 33.139 3.52568 33.4743C3.86096 33.8096 4.31531 33.9986 4.78948 34H30.7367C31.2109 33.9986 31.6652 33.8096 32.0005 33.4743C32.3358 33.139 32.5248 32.6847 32.5262 32.2105V13.8645C32.5249 13.6152 32.4732 13.3686 32.3741 13.1398ZM22.2368 5.36858H11.5C11.144 5.36858 10.8027 5.22718 10.551 4.97549C10.2993 4.72379 10.1579 4.38243 10.1579 4.02648C10.1579 3.67053 10.2993 3.32916 10.551 3.07747C10.8027 2.82578 11.144 2.68438 11.5 2.68438H22.2368C22.5927 2.68438 22.9341 2.82578 23.1858 3.07747C23.4375 3.32916 23.5788 3.67053 23.5788 4.02648C23.5788 4.38243 23.4375 4.72379 23.1858 4.97549C22.9341 5.22718 22.5927 5.36858 22.2368 5.36858Z" fill="url(#paint1_linear_245_2861)"/>
<path d="M28.9471 7.1582L25.5224 13.1419C25.4207 13.3707 25.3682 13.6183 25.3682 13.8687V33.1054C25.3682 33.3427 25.4624 33.5703 25.6302 33.7381C25.798 33.9059 26.0256 34.0002 26.2629 34.0002H30.7366C31.2112 34.0002 31.6663 33.8116 32.0019 33.476C32.3375 33.1405 32.526 32.6853 32.526 32.2107V13.8687C32.526 13.6183 32.4735 13.3707 32.3718 13.1419L28.9471 7.1582Z" fill="url(#paint2_linear_245_2861)"/>
<path d="M13.3888 18.5276C13.3888 19.7811 12.6309 20.7972 11.6961 20.7972C10.7612 20.7972 10.2572 19.7811 10.2572 18.5276C10.2658 18.131 10.3726 17.7426 10.5681 17.3974C10.7636 17.0521 11.0417 16.7608 11.3775 16.5494C11.5999 16.006 11.9979 15.5527 12.5081 15.262C12.5605 15.2299 12.6205 15.2122 12.6819 15.2106C12.7434 15.209 12.8042 15.2236 12.8582 15.253C12.9123 15.2824 12.9576 15.3255 12.9896 15.378C13.0217 15.4305 13.0393 15.4905 13.0408 15.5519V16.6372C13.3278 17.2236 13.4481 17.8775 13.3888 18.5276ZM16.096 16.5494C15.8736 16.006 15.4756 15.5527 14.9654 15.262C14.913 15.2299 14.853 15.2122 14.7915 15.2106C14.7301 15.209 14.6693 15.2236 14.6152 15.253C14.5612 15.2824 14.5159 15.3255 14.4838 15.378C14.4518 15.4305 14.4341 15.4905 14.4326 15.5519V16.6372C14.1457 17.2236 14.0253 17.8775 14.0847 18.5276C14.0847 19.7811 14.8425 20.7972 15.7774 20.7972C16.7123 20.7972 17.2163 19.7811 17.2163 18.5276C17.2077 18.131 17.1009 17.7426 16.9054 17.3974C16.7099 17.0521 16.4318 16.7608 16.096 16.5494ZM16.1724 26.0347C15.4765 25.6855 15.4765 24.638 15.4765 24.638C15.4772 24.409 15.4328 24.1822 15.3457 23.9705C15.2586 23.7588 15.1305 23.5663 14.9689 23.4042C14.8073 23.242 14.6152 23.1134 14.4038 23.0256C14.1924 22.9378 13.9657 22.8926 13.7367 22.8926C13.5078 22.8926 13.2811 22.9378 13.0697 23.0256C12.8582 23.1134 12.6662 23.242 12.5046 23.4042C12.3429 23.5663 12.2149 23.7588 12.1278 23.9705C12.0407 24.1822 11.9963 24.409 11.997 24.638C12.0003 24.8875 11.9145 25.13 11.7551 25.322C11.5956 25.514 11.373 25.6429 11.1271 25.6855C10.6188 25.687 10.1318 25.89 9.77296 26.25C9.41408 26.61 9.21256 27.0976 9.21256 27.6059C9.21256 28.1142 9.41408 28.6018 9.77296 28.9617C10.1318 29.3217 10.6188 29.5247 11.1271 29.5263C12.6059 29.5263 13.0408 28.8279 13.7367 28.8279C13.8049 28.8303 13.8729 28.8377 13.94 28.8499C14.514 28.9648 14.9228 29.5263 16.1724 29.5263C16.6344 29.5248 17.077 29.3402 17.4032 29.013C17.7294 28.6857 17.9126 28.2425 17.9126 27.7805C17.9126 27.3184 17.7294 26.8752 17.4032 26.5479C17.077 26.2207 16.6344 26.0361 16.1724 26.0347ZM10.2572 21.4955C9.9615 21.1988 9.91324 20.6536 9.47931 20.4955C9.39998 20.1194 9.23709 19.766 9.00268 19.4614C8.98531 19.4422 8.96413 19.4269 8.94049 19.4164C8.91685 19.4059 8.89128 19.4005 8.86542 19.4005C8.83956 19.4005 8.81399 19.4059 8.79035 19.4164C8.76671 19.4269 8.74553 19.4422 8.72816 19.4614C8.42418 19.8671 8.23742 20.3485 8.18823 20.853C7.957 21.0686 7.77384 21.3306 7.6507 21.6218C7.52757 21.913 7.46723 22.2269 7.47362 22.543C7.43099 23.0506 7.58945 23.5546 7.91487 23.9464C8.24028 24.3383 8.7066 24.5867 9.21337 24.638C9.90927 24.638 9.81986 24.033 10.2572 23.5905C10.7546 23.0873 10.9531 23.0667 10.9531 22.543C10.9531 22.1938 10.6052 21.8447 10.2572 21.4955ZM19.2852 20.853C19.2361 20.3485 19.0493 19.8671 18.7453 19.4614C18.728 19.4422 18.7068 19.4269 18.6831 19.4164C18.6595 19.4059 18.6339 19.4005 18.6081 19.4005C18.5822 19.4005 18.5566 19.4059 18.533 19.4164C18.5093 19.4269 18.4882 19.4422 18.4708 19.4614C18.2364 19.766 18.0735 20.1194 17.9942 20.4955C17.5602 20.6536 17.512 21.1988 17.2163 21.4955C16.8683 21.8447 16.5203 22.1938 16.5203 22.543C16.5203 23.0667 16.7189 23.0873 17.2163 23.5905C17.6536 24.033 17.5642 24.638 18.2601 24.638C18.7669 24.5867 19.2332 24.3383 19.5586 23.9464C19.884 23.5546 20.0425 23.0506 19.9999 22.543C20.0063 22.2269 19.9459 21.913 19.8228 21.6218C19.6996 21.3306 19.5165 21.0686 19.2852 20.853Z" fill="url(#paint3_linear_245_2861)"/>
<defs>
<linearGradient id="paint0_linear_245_2861" x1="18" y1="34.5" x2="18" y2="42.057" gradientUnits="userSpaceOnUse">
<stop stop-color="#EBA84B"/>
<stop offset="0.255" stop-color="#E8A044"/>
<stop offset="0.641" stop-color="#E18B30"/>
<stop offset="1" stop-color="#D97218"/>
</linearGradient>
<linearGradient id="paint1_linear_245_2861" x1="17.7631" y1="-9.91971" x2="17.7631" y2="38.8629" gradientUnits="userSpaceOnUse">
<stop stop-color="#EBA84B"/>
<stop offset="1" stop-color="#D97218"/>
</linearGradient>
<linearGradient id="paint2_linear_245_2861" x1="28.9471" y1="7.11078" x2="28.9471" y2="53.5957" gradientUnits="userSpaceOnUse">
<stop stop-color="#C26715"/>
<stop offset="0.51" stop-color="#B85515"/>
<stop offset="1" stop-color="#AD3F16"/>
</linearGradient>
<linearGradient id="paint3_linear_245_2861" x1="13.7367" y1="9.93433" x2="13.7367" y2="32.826" gradientUnits="userSpaceOnUse">
<stop stop-color="#C26715"/>
<stop offset="0.51" stop-color="#B85515"/>
<stop offset="1" stop-color="#AD3F16"/>
</linearGradient>
</defs>
</svg>
