<svg width="24" height="24" viewBox="0 0 24 24" fill="none" xmlns="http://www.w3.org/2000/svg">
<path d="M20 10.9545C20 16.3636 13 21 13 21C13 21 6 16.3636 6 10.9545C6 9.11009 6.7375 7.34117 8.05025 6.03694C9.36301 4.73271 11.1435 4 13 4C14.8565 4 16.637 4.73271 17.9497 6.03694C19.2625 7.34117 20 9.11009 20 10.9545Z" stroke="#0A0B0E" stroke-width="1.5" stroke-linecap="round" stroke-linejoin="round"/>
<path d="M13 13C14.1046 13 15 12.1046 15 11C15 9.89543 14.1046 9 13 9C11.8954 9 11 9.89543 11 11C11 12.1046 11.8954 13 13 13Z" stroke="#0A0B0E" stroke-width="1.5" stroke-linecap="round" stroke-linejoin="round"/>
</svg>
