<svg width="44" height="44" viewBox="0 0 44 44" fill="none" xmlns="http://www.w3.org/2000/svg">
<g clip-path="url(#clip0_25_5384)">
<path d="M6.49713 5.89844H37.5061C38.4839 5.89844 39.2767 6.69121 39.2767 7.66909V14.7561H4.72656V7.66901C4.72656 6.69113 5.51925 5.89844 6.49713 5.89844Z" fill="#DC4955"/>
<path d="M6.49722 5.89852C5.51934 5.89852 4.72656 6.6913 4.72656 7.66918V14.7562H7.33648V7.66909C7.33648 6.69121 8.12926 5.89844 9.10714 5.89844L6.49722 5.89852Z" fill="#C42430"/>
<path d="M37.505 5.89844H25.9219V14.7561H39.2756V7.66901C39.2756 6.69113 38.4829 5.89844 37.505 5.89844Z" fill="#C42430"/>
<path d="M37.5062 38.9111H6.49722C5.51934 38.9111 4.72656 38.1183 4.72656 37.1405V12.2188H39.2767V37.1405C39.2768 38.1183 38.4841 38.9111 37.5062 38.9111Z" fill="#F1F6F7"/>
<path d="M25.9219 15.3365C25.9219 16.0669 26.2259 16.7716 26.7562 17.2701C27.2523 17.7365 27.9002 17.9933 28.5804 17.9932C29.2226 17.9932 29.8435 17.7589 30.3287 17.3334L32.3359 15.5736C32.3837 15.5316 32.4446 15.5085 32.5073 15.5085H39.2756V12.2188H25.9219V15.3365Z" fill="#D2E4E7"/>
<path d="M7.44253 26.9074C7.40704 26.9074 7.37189 26.909 7.33648 26.9093V12.2188H4.72656V37.1405C4.72656 38.1183 5.51934 38.9111 6.49722 38.9111H16.8071C16.9959 38.1587 17.0968 37.3718 17.0968 36.5616C17.0968 31.2383 12.7659 26.9074 7.44253 26.9074Z" fill="#D2E4E7"/>
<path d="M12.7377 9.46514C11.7867 9.46514 11.0156 8.69411 11.0156 7.74304V3.62835C11.0156 2.67728 11.7867 1.90625 12.7377 1.90625C13.6888 1.90625 14.4598 2.67728 14.4598 3.62835V7.74304C14.4598 8.69411 13.6888 9.46514 12.7377 9.46514Z" fill="#9BB9C3"/>
<path d="M22.0034 9.46514C21.0523 9.46514 20.2812 8.69411 20.2812 7.74304V3.62835C20.2812 2.67728 21.0523 1.90625 22.0034 1.90625C22.9544 1.90625 23.7255 2.67728 23.7255 3.62835V7.74304C23.7255 8.69411 22.9544 9.46514 22.0034 9.46514Z" fill="#9BB9C3"/>
<path d="M19.7073 21.0327H17.3099C17.0654 21.0327 16.8672 20.8346 16.8672 20.5901V18.1927C16.8672 17.9482 17.0654 17.75 17.3099 17.75H19.7073C19.9517 17.75 20.1499 17.9482 20.1499 18.1927V20.5901C20.1498 20.8346 19.9517 21.0327 19.7073 21.0327Z" fill="#9BB9C3"/>
<path d="M26.6839 21.0327H24.2864C24.0419 21.0327 23.8438 20.8346 23.8438 20.5901V18.1927C23.8438 17.9482 24.0419 17.75 24.2864 17.75H26.6838C26.9283 17.75 27.1265 17.9482 27.1265 18.1927V20.5901C27.1266 20.8346 26.9284 21.0327 26.6839 21.0327Z" fill="#9BB9C3"/>
<path d="M33.6682 21.0327H31.2708C31.0263 21.0327 30.8281 20.8346 30.8281 20.5901V18.1927C30.8281 17.9482 31.0263 17.75 31.2708 17.75H33.6682C33.9127 17.75 34.1109 17.9482 34.1109 18.1927V20.5901C34.1109 20.8346 33.9127 21.0327 33.6682 21.0327Z" fill="#DC4955"/>
<path d="M12.7307 27.2046H10.3333C10.0888 27.2046 9.89062 27.0064 9.89062 26.7619V24.3645C9.89062 24.12 10.0888 23.9219 10.3333 23.9219H12.7307C12.9752 23.9219 13.1734 24.12 13.1734 24.3645V26.7619C13.1734 27.0064 12.9752 27.2046 12.7307 27.2046Z" fill="#9BB9C3"/>
<path d="M19.7151 27.2046H17.3177C17.0732 27.2046 16.875 27.0064 16.875 26.7619V24.3645C16.875 24.12 17.0732 23.9219 17.3177 23.9219H19.7151C19.9596 23.9219 20.1577 24.12 20.1577 24.3645V26.7619C20.1576 27.0064 19.9595 27.2046 19.7151 27.2046Z" fill="#9BB9C3"/>
<path d="M26.6839 27.2046H24.2864C24.0419 27.2046 23.8438 27.0064 23.8438 26.7619V24.3645C23.8438 24.12 24.0419 23.9219 24.2864 23.9219H26.6838C26.9283 23.9219 27.1265 24.12 27.1265 24.3645V26.7619C27.1266 27.0064 26.9284 27.2046 26.6839 27.2046Z" fill="#9BB9C3"/>
<path d="M33.6682 27.2046H31.2708C31.0263 27.2046 30.8281 27.0064 30.8281 26.7619V24.3645C30.8281 24.12 31.0263 23.9219 31.2708 23.9219H33.6682C33.9127 23.9219 34.1109 24.12 34.1109 24.3645V26.7619C34.1109 27.0064 33.9127 27.2046 33.6682 27.2046Z" fill="#DC4955"/>
<path d="M19.7151 33.3765H17.3177C17.0732 33.3765 16.875 33.1783 16.875 32.9338V30.5364C16.875 30.2919 17.0732 30.0938 17.3177 30.0938H19.7151C19.9596 30.0938 20.1577 30.2919 20.1577 30.5364V32.9338C20.1576 33.1783 19.9595 33.3765 19.7151 33.3765Z" fill="#9BB9C3"/>
<path d="M26.6839 33.3765H24.2864C24.0419 33.3765 23.8438 33.1783 23.8438 32.9338V30.5364C23.8438 30.2919 24.0419 30.0938 24.2864 30.0938H26.6838C26.9283 30.0938 27.1265 30.2919 27.1265 30.5364V32.9338C27.1266 33.1783 26.9284 33.3765 26.6839 33.3765Z" fill="#9BB9C3"/>
<path d="M12.7307 21.0327H10.3333C10.0888 21.0327 9.89062 20.8346 9.89062 20.5901V18.1927C9.89062 17.9482 10.0888 17.75 10.3333 17.75H12.7307C12.9752 17.75 13.1734 17.9482 13.1734 18.1927V20.5901C13.1734 20.8346 12.9752 21.0327 12.7307 21.0327Z" fill="#9BB9C3"/>
<path d="M33.6682 33.3765H31.2708C31.0263 33.3765 30.8281 33.1783 30.8281 32.9338V30.5364C30.8281 30.2919 31.0263 30.0938 31.2708 30.0938H33.6682C33.9127 30.0938 34.1109 30.2919 34.1109 30.5364V32.9338C34.1109 33.1783 33.9127 33.3765 33.6682 33.3765Z" fill="#DC4955"/>
<path d="M41.5194 13.2928H32.5051C31.9055 13.2928 31.3261 13.511 30.8744 13.9071L28.8673 15.6668C28.5812 15.9177 28.1328 15.7145 28.1328 15.334V2.48832C28.1329 1.11401 29.2427 0 30.6118 0H41.5194C42.8885 0 43.9982 1.11401 43.9982 2.48832V10.8045C43.9982 12.1787 42.8885 13.2928 41.5194 13.2928Z" fill="#7398D4"/>
<path d="M30.6117 0C29.2426 0 28.1328 1.11401 28.1328 2.48832V15.334C28.1328 15.7145 28.5811 15.9177 28.8673 15.6668L29.5664 15.0538V2.48832C29.5665 1.11401 30.6763 0 32.0454 0L30.6117 0Z" fill="#4377C4"/>
<path d="M7.4409 29.1172C3.33137 29.1172 0 32.4486 0 36.5581C0 40.6676 3.33137 43.999 7.4409 43.999C11.5503 43.999 14.8818 40.6676 14.8818 36.5581C14.8818 32.4486 11.5503 29.1172 7.4409 29.1172Z" fill="#FFE17D"/>
<path d="M1.98877 36.558C1.98877 32.7859 4.79626 29.6715 8.43528 29.1852C8.10984 29.1418 7.77829 29.1172 7.4409 29.1172C3.33137 29.1171 0 32.4486 0 36.558C0 40.6675 3.33137 43.9989 7.4409 43.9989C7.77829 43.9989 8.10975 43.9743 8.43528 43.9308C4.79626 43.4445 1.98877 40.3301 1.98877 36.558Z" fill="#FFD164"/>
<path d="M7.44227 35.8909C7.42483 35.8909 7.40747 35.8915 7.39028 35.8929C6.88609 35.8658 6.48416 35.4471 6.48416 34.9361C6.48416 34.4077 6.91393 33.978 7.44227 33.978C7.97062 33.978 8.40048 34.4078 8.40048 34.9361C8.40048 35.3028 8.69773 35.6 9.06443 35.6C9.43121 35.6 9.72838 35.3028 9.72838 34.9361C9.72838 33.9064 9.04398 33.0338 8.10623 32.7486V31.8593C8.10623 31.4926 7.80897 31.1953 7.44227 31.1953C7.07549 31.1953 6.77832 31.4926 6.77832 31.8593V32.7486C5.84066 33.0339 5.15625 33.9064 5.15625 34.9361C5.15625 36.1966 6.18183 37.2223 7.44236 37.2223C7.4598 37.2223 7.47716 37.2216 7.49435 37.2202C7.99863 37.2473 8.40056 37.6661 8.40056 38.177C8.40056 38.7054 7.9707 39.1352 7.44236 39.1352C6.91402 39.1352 6.48424 38.7054 6.48424 38.177C6.48424 37.8104 6.18698 37.5131 5.82029 37.5131C5.45351 37.5131 5.15634 37.8104 5.15634 38.177C5.15634 39.2068 5.84074 40.0793 6.77841 40.3645V41.2539C6.77841 41.6206 7.07566 41.9178 7.44236 41.9178C7.80914 41.9178 8.10631 41.6206 8.10631 41.2539V40.3645C9.04406 40.0793 9.72847 39.2068 9.72847 38.177C9.72838 36.9164 8.70289 35.8909 7.44227 35.8909Z" fill="#FFC350"/>
<path d="M32.0943 10.941C31.7383 10.941 31.4498 10.6525 31.4498 10.2965V5.07812H30.5977C30.2416 5.07812 29.9531 4.78955 29.9531 4.43359C29.9531 4.07764 30.2416 3.78906 30.5977 3.78906H32.0943C32.4504 3.78906 32.7389 4.07764 32.7389 4.43359V10.2964C32.7389 10.6525 32.4504 10.941 32.0943 10.941Z" fill="#F1F6F7"/>
<path d="M37.5541 11.0174C37.2191 11.0174 36.9228 10.8046 36.816 10.4868C36.8135 10.4792 36.811 10.4716 36.8088 10.4638L35.7214 6.77796L35.0602 10.441C34.997 10.7913 34.6613 11.0237 34.3114 10.9608C33.9611 10.8975 33.7284 10.5623 33.7916 10.212L34.8355 4.42826C34.9035 4.07385 35.1965 3.81484 35.5494 3.79112C35.902 3.76689 36.2271 3.98499 36.3397 4.32024C36.3422 4.32771 36.3446 4.33536 36.3469 4.34301L37.5456 8.40622L38.702 4.34963C38.704 4.34224 38.7064 4.33485 38.7088 4.32746C38.8179 3.99118 39.141 3.77075 39.4933 3.79026C39.8461 3.81011 40.1419 4.06595 40.2124 4.41228L41.3196 10.2055C41.3865 10.5551 41.1572 10.8927 40.8076 10.9595C40.4576 11.0265 40.1203 10.797 40.0536 10.4474L39.3514 6.77358L38.3015 10.4567C38.2994 10.4642 38.297 10.4716 38.2947 10.479C38.1907 10.7993 37.8947 11.0155 37.5581 11.0173C37.5568 11.0174 37.5554 11.0174 37.5541 11.0174Z" fill="#F1F6F7"/>
</g>
<defs>
<clipPath id="clip0_25_5384">
<rect width="44" height="44" fill="white"/>
</clipPath>
</defs>
</svg>
