<svg width="44" height="44" viewBox="0 0 44 44" fill="none" xmlns="http://www.w3.org/2000/svg">
<path d="M39.5911 13.4375H8.39844V41.8562L8.59764 42.8374L9.40176 43.6859L10.0388 43.9998H38.0115C39.2094 43.9998 40.1805 43.0287 40.1805 41.8307V13.8947L39.5911 13.4375Z" fill="#C9F0FE"/>
<path d="M8.56457 41.8309V13.8949L9.18066 13.4376H4.44421L3.82812 13.8949V41.8309C3.82812 43.0287 4.79922 43.9999 5.99719 43.9999H10.7336C9.53566 43.9999 8.56457 43.0288 8.56457 41.8309Z" fill="#9BE8FD"/>
<path d="M38.0115 3.71094H8.98212L8.39844 4.78189V13.8932H40.1805V5.87991C40.1805 4.68203 39.2094 3.71094 38.0115 3.71094Z" fill="#EF6060"/>
<path d="M10.7336 3.71094H5.99719C4.7993 3.71094 3.82812 4.68203 3.82812 5.88V13.8932H8.56457V5.87991C8.56466 4.68203 9.53575 3.71094 10.7336 3.71094Z" fill="#EB4444"/>
<path d="M26.7462 11.3123H17.2733C16.9066 11.3123 16.6094 11.015 16.6094 10.6483C16.6094 10.2816 16.9066 9.98438 17.2733 9.98438H26.7462C27.1129 9.98438 27.4102 10.2816 27.4102 10.6483C27.4102 11.015 27.1129 11.3123 26.7462 11.3123Z" fill="#F67B7B"/>
<path d="M30.8271 31.5305C30.5333 31.311 30.1172 31.3716 29.8978 31.6652L28.1954 33.9456L26.4929 31.6652C26.2735 31.3715 25.8575 31.3109 25.5637 31.5305C25.2699 31.7498 25.2094 32.1659 25.4288 32.4598L27.5314 35.2761V38.5089C27.5314 38.8756 27.8286 39.1728 28.1954 39.1728C28.5621 39.1728 28.8594 38.8756 28.8594 38.5089V35.2761L30.9619 32.4598C31.1813 32.1659 31.121 31.7498 30.8271 31.5305Z" fill="#6B7ED9"/>
<path d="M25.5383 38.2734L23.0953 31.8271C22.9975 31.5691 22.7503 31.3984 22.4744 31.3984C22.1984 31.3984 21.9513 31.5691 21.8535 31.8271L19.4105 38.2734C19.2805 38.6164 19.4531 38.9997 19.7961 39.1297C19.8735 39.159 19.9531 39.1729 20.0312 39.1729C20.2991 39.1729 20.5516 39.0096 20.6522 38.7441L21.094 37.5784H23.8546L24.2964 38.7441C24.4264 39.0869 24.8097 39.2596 25.1526 39.1297C25.4957 38.9998 25.6683 38.6164 25.5383 38.2734ZM21.5974 36.2504L22.4745 33.9361L23.3516 36.2504H21.5974Z" fill="#6B7ED9"/>
<path d="M15.2178 39.1727H14.3046C13.9379 39.1727 13.6406 38.8754 13.6406 38.5087V32.0624C13.6406 31.6956 13.9379 31.3984 14.3046 31.3984H15.2178C17.296 31.3984 18.9867 33.0892 18.9867 35.1674V35.4037C18.9867 37.482 17.296 39.1727 15.2178 39.1727ZM14.9685 37.8447H15.2178C16.5637 37.8447 17.6587 36.7496 17.6587 35.4036V35.1673C17.6587 33.8214 16.5637 32.7263 15.2178 32.7263H14.9685V37.8447Z" fill="#6B7ED9"/>
<path d="M22.5206 17.7266H21.4021C21.2251 17.786 21.0707 17.8385 21.0707 17.8385L20.5469 18.5394V19.373L20.7239 19.9411L21.3819 20.3616L22.6347 20.6862V27.7539L23.2673 28.4315C23.6181 28.1925 23.8486 27.7899 23.8486 27.3334V19.0546C23.8485 18.3211 23.254 17.7266 22.5206 17.7266Z" fill="#6B7ED9"/>
<path d="M22.8815 27.296V21.0196C22.8815 20.6678 22.5963 20.3825 22.2445 20.3825H21.9696C21.2546 20.3825 20.6393 19.8331 20.6056 19.1188C20.5696 18.3561 21.1773 17.7266 21.932 17.7266H20.2499C19.5165 17.7266 18.9219 18.3212 18.9219 19.0546C18.9219 19.7879 19.5165 20.3825 20.2499 20.3825H21.1993V27.3335C21.1993 28.0669 21.7939 28.6615 22.5273 28.6615C22.8496 28.6615 23.145 28.5465 23.375 28.3556C23.0728 28.102 22.8815 27.7168 22.8815 27.296Z" fill="#4D66D2"/>
<path d="M10.5386 0.015625H10.1315L9.84375 0.476594V6.55942L10.3049 6.82875L10.5386 6.85023C10.8678 6.77727 11.1141 6.48414 11.1141 6.13317V0.732687C11.1141 0.381633 10.8678 0.0885 10.5386 0.015625Z" fill="#FFD086"/>
<path d="M9.9633 6.13542V0.734937C9.9633 0.383883 10.2096 0.09075 10.5387 0.0177891C10.4874 0.00644531 10.4341 0 10.3792 0H9.01619C8.6103 0 8.28125 0.329055 8.28125 0.734937V6.13534C8.28125 6.54122 8.6103 6.87027 9.01619 6.87027H10.3792C10.4341 6.87027 10.4874 6.86383 10.5387 6.8524C10.2096 6.77961 9.9633 6.48648 9.9633 6.13542Z" fill="#FFC365"/>
<path d="M16.6949 0.015625H16.2877L16 0.476594V6.55942L16.4611 6.82875L16.6949 6.85023C17.024 6.77727 17.2703 6.48414 17.2703 6.13317V0.732687C17.2704 0.381633 17.024 0.0885 16.6949 0.015625Z" fill="#FFD086"/>
<path d="M16.1196 6.13542V0.734937C16.1196 0.383883 16.3659 0.09075 16.695 0.0177891C16.6436 0.00644531 16.5903 0 16.5355 0H15.1724C14.7666 0 14.4375 0.329055 14.4375 0.734937V6.13534C14.4375 6.54122 14.7666 6.87027 15.1724 6.87027H16.5355C16.5903 6.87027 16.6436 6.86383 16.695 6.8524C16.3659 6.77961 16.1196 6.48648 16.1196 6.13542Z" fill="#FFC365"/>
<path d="M22.8511 0.015625H22.444L22.1562 0.476594V6.55942L22.6174 6.82875L22.8511 6.85023C23.1803 6.77727 23.4266 6.48414 23.4266 6.13317V0.732687C23.4267 0.381633 23.1803 0.0885 22.8511 0.015625Z" fill="#FFD086"/>
<path d="M22.2758 6.13542V0.734937C22.2758 0.383883 22.5221 0.09075 22.8512 0.0177891C22.7999 0.00644531 22.7466 0 22.6917 0H21.3287C20.9228 0 20.5938 0.329055 20.5938 0.734937V6.13534C20.5938 6.54122 20.9228 6.87027 21.3287 6.87027H22.6917C22.7466 6.87027 22.7999 6.86383 22.8512 6.8524C22.5221 6.77961 22.2758 6.48648 22.2758 6.13542Z" fill="#FFC365"/>
<path d="M28.9996 0.015625H28.5924L28.3047 0.476594V6.55942L28.7658 6.82875L28.9996 6.85023C29.3287 6.77727 29.575 6.48414 29.575 6.13317V0.732687C29.5751 0.381633 29.3287 0.0885 28.9996 0.015625Z" fill="#FFD086"/>
<path d="M28.4242 6.13542V0.734937C28.4242 0.383883 28.6705 0.09075 28.9997 0.0177891C28.9483 0.00644531 28.895 0 28.8402 0H27.4771C27.0712 0 26.7422 0.329055 26.7422 0.734937V6.13534C26.7422 6.54122 27.0712 6.87027 27.4771 6.87027H28.8402C28.895 6.87027 28.9483 6.86383 28.9997 6.8524C28.6705 6.77961 28.4242 6.48648 28.4242 6.13542Z" fill="#FFC365"/>
<path d="M35.148 0.015625H34.7408L34.4531 0.476594V6.55942L34.9143 6.82875L35.148 6.85023C35.4772 6.77727 35.7235 6.48414 35.7235 6.13317V0.732687C35.7235 0.381633 35.4772 0.0885 35.148 0.015625Z" fill="#FFD086"/>
<path d="M34.5727 6.13542V0.734937C34.5727 0.383883 34.819 0.09075 35.1481 0.0177891C35.0967 0.00644531 35.0434 0 34.9886 0H33.6256C33.2197 0 32.8906 0.329055 32.8906 0.734937V6.13534C32.8906 6.54122 33.2197 6.87027 33.6256 6.87027H34.9886C35.0434 6.87027 35.0967 6.86383 35.1481 6.8524C34.819 6.77961 34.5727 6.48648 34.5727 6.13542Z" fill="#FFC365"/>
<path d="M37.8194 37.3203L37.0658 37.5832L36.2031 38.4574V40.8584L36.4218 41.0769L40.1783 37.3203H37.8194Z" fill="#9BE8FD"/>
<path d="M36.4215 39.4894C36.4215 38.2915 37.3926 37.3203 38.5906 37.3203H35.6691C34.4712 37.3203 33.5 38.2914 33.5 39.4894V43.9984L36.4215 41.0769V39.4894Z" fill="#62DDFC"/>
</svg>
