<svg width="133" height="105" viewBox="0 0 133 105" fill="none" xmlns="http://www.w3.org/2000/svg">
<g clip-path="url(#clip0_2_8230)">
<path d="M132.515 87.6916V14.7639C132.515 13.9059 131.82 13.2109 130.962 13.2109H40.927C40.069 13.2109 39.374 13.9059 39.374 14.7639V87.6916C39.374 94.0883 44.5596 99.2728 50.9553 99.2728H120.934C127.331 99.2728 132.515 94.0873 132.515 87.6916Z" fill="#F0F0F0"/>
<path d="M132.514 13.2109H39.374V16.1674H132.514V13.2109Z" fill="#CEDDEA"/>
<path d="M49.442 0H122.447C128.012 0 132.515 4.52297 132.515 10.0701V13.7832H39.374V10.0701C39.374 4.52297 43.8771 0 49.442 0Z" fill="#EBF6FF"/>
<path d="M64.0029 9.60874C65.5005 9.60874 66.7148 8.39439 66.7148 6.89684C66.7148 5.39928 65.5005 4.18494 64.0029 4.18494C62.5054 4.18494 61.291 5.39928 61.291 6.89684C61.291 8.39439 62.5054 9.60874 64.0029 9.60874Z" fill="#89C147"/>
<path d="M56.3242 9.60874C57.8218 9.60874 59.0351 8.39439 59.0351 6.89684C59.0351 5.39928 57.8218 4.18494 56.3242 4.18494C54.8267 4.18494 53.6123 5.39928 53.6123 6.89684C53.6123 8.39439 54.8267 9.60874 56.3242 9.60874Z" fill="#FF9700"/>
<path d="M48.6445 9.60874C50.1431 9.60874 51.3564 8.39439 51.3564 6.89684C51.3564 5.39928 50.1431 4.18494 48.6445 4.18494C47.1459 4.18494 45.9326 5.39928 45.9326 6.89684C45.9326 8.39439 47.148 9.60874 48.6445 9.60874Z" fill="#E81D62"/>
<path d="M106.391 57.6132L102.138 68.7984C101.744 69.8852 100.707 70.6032 99.5502 70.6032H72.5368C71.405 70.6032 70.3808 69.904 69.968 68.8548L59.6523 42.459C57.8162 37.775 54.5713 33.8707 50.3671 31.233C49.1632 30.4775 48.719 28.9402 49.3492 27.6652C50.0734 26.2001 51.9043 25.6797 53.2901 26.546C57.7065 29.307 61.2711 33.2092 63.6256 37.8566H90.0455C89.3861 51.9804 98.245 57.0896 106.39 57.6122L106.391 57.6132Z" fill="#CEDDEA"/>
<path d="M68.4492 79.8815C68.4492 83.6604 71.5227 86.7339 75.3016 86.7339C79.0805 86.7339 82.1561 83.6604 82.1561 79.8815C82.1561 76.1026 79.0826 73.0281 75.3016 73.0281C71.5206 73.0281 68.4492 76.1026 68.4492 79.8815Z" fill="#CEDDEA"/>
<path d="M96.6376 73.0281C92.8587 73.0281 89.7842 76.1026 89.7842 79.8815C89.7842 83.6604 92.8587 86.7339 96.6376 86.7339C100.417 86.7339 103.491 83.6604 103.491 79.8815C103.491 76.1026 100.418 73.0281 96.6376 73.0281Z" fill="#CEDDEA"/>
<path d="M100.102 29.453C91.3257 29.453 84.21 36.5687 84.21 45.3461C84.21 54.1235 91.3257 61.2319 100.102 61.2319C108.878 61.2319 115.988 54.1235 115.988 45.3461C115.988 36.5687 108.879 29.453 100.102 29.453ZM98.5365 52.6374L91.5222 45.6157L94.4431 42.6875L98.5365 46.781L105.725 39.5848L108.667 42.5276L98.5365 52.6374Z" fill="#89C147"/>
</g>
<path d="M60.9268 59.0327C59.4362 59.0327 58.0042 58.7049 56.6695 59.1634C55.3347 59.6222 54.0972 60.2902 52.9961 61.1281C50.8641 59.628 48.267 58.7442 45.4619 58.7442C44.1831 58.7442 42.9481 58.9306 41.7796 59.2722C38.7023 56.5969 34.6865 54.9739 30.2889 54.9739C20.8526 54.9739 13.1614 62.432 12.7803 71.7747L48.5131 74.5329L71.1528 71.567C71.1522 64.3256 68.1676 59.0327 60.9268 59.0327Z" fill="#C68D7A"/>
<path d="M72.8348 71.7808H9.07413C6.97129 71.7808 5.17284 73.2921 4.81073 75.3635L0.553091 99.7191C0.0902794 102.367 2.12821 104.792 4.8165 104.792H77.0924C79.7807 104.792 81.8187 102.367 81.3559 99.7191L77.0982 75.3635C76.7361 73.2921 74.9377 71.7808 72.8348 71.7808Z" fill="#6B95D6"/>
<path d="M33.0696 81.0146C31.0536 83.0306 31.0536 86.2991 33.0696 88.3151L41.4121 96.6575C41.9542 97.1994 42.8328 97.1994 43.375 96.6575L51.7174 88.3151C53.7334 86.2991 53.7334 83.0306 51.7174 81.0146C49.7014 78.9986 46.4329 78.9986 44.4169 81.0146L42.3934 83.0381L40.3699 81.0146C38.3542 78.9986 35.0856 78.9986 33.0696 81.0146Z" fill="#FFE187"/>
<path d="M84.2426 99.7191L79.9849 75.3635C79.6228 73.2921 77.8244 71.7808 75.7215 71.7808H67.0654C69.1683 71.7808 70.9667 73.2921 71.3288 75.3635L75.5865 99.7191C76.0493 102.367 74.0114 104.792 71.3231 104.792H79.9791C82.6674 104.792 84.7054 102.367 84.2426 99.7191Z" fill="#2571B6"/>
<path d="M60.9232 58.457C59.4055 58.457 57.9493 58.7164 56.5938 59.1914C61.708 60.9791 65.3782 65.8438 65.3782 71.5681C65.3782 71.6379 65.3742 71.7066 65.373 71.7759H74.0291C74.0303 71.7063 74.0343 71.6376 74.0343 71.5681C74.034 64.327 68.164 58.457 60.9232 58.457Z" fill="#AA6A51"/>
<defs>
<clipPath id="clip0_2_8230">
<rect width="93.141" height="99.2796" fill="white" transform="translate(39.3711)"/>
</clipPath>
</defs>
</svg>
