<svg width="200" height="199" viewBox="0 0 200 199" fill="none" xmlns="http://www.w3.org/2000/svg">
<g clip-path="url(#clip0_2_4864)">
<path d="M168.693 189.283H31.8809C14.7358 189.283 0.787109 175.335 0.787109 158.189C0.787109 141.044 14.7358 127.096 31.8809 127.096H168.693C185.838 127.096 199.787 141.044 199.787 158.189C199.787 175.335 185.838 189.283 168.693 189.283Z" fill="#F7F2F4"/>
<path d="M80.8555 167.906C86.2219 167.906 90.5723 163.556 90.5723 158.189C90.5723 152.823 86.2219 148.473 80.8555 148.473C75.489 148.473 71.1387 152.823 71.1387 158.189C71.1387 163.556 75.489 167.906 80.8555 167.906Z" fill="#6D737F"/>
<path d="M41.9883 167.906C47.3547 167.906 51.7051 163.556 51.7051 158.189C51.7051 152.823 47.3547 148.473 41.9883 148.473C36.6218 148.473 32.2715 152.823 32.2715 158.189C32.2715 163.556 36.6218 167.906 41.9883 167.906Z" fill="#6D737F"/>
<path d="M123.609 61.0215H76.9688C73.749 61.0215 71.1387 58.4112 71.1387 55.1914V38.8672C71.1387 22.7937 84.2155 9.7168 100.289 9.7168C116.363 9.7168 129.439 22.7937 129.439 38.8672V55.1914C129.439 58.4112 126.829 61.0215 123.609 61.0215ZM82.7988 49.3613H117.779V38.8672C117.779 29.2231 109.933 21.377 100.289 21.377C90.6449 21.377 82.7988 29.2231 82.7988 38.8672V49.3613Z" fill="#6D737F"/>
<path d="M100.287 9.7168V21.377C109.931 21.377 117.777 29.2231 117.777 38.8672V49.3613H100.287V61.0215H123.607C126.827 61.0215 129.438 58.4112 129.438 55.1914V38.8672C129.438 22.7937 116.361 9.7168 100.287 9.7168Z" fill="#5E5F69"/>
<path d="M137.215 107.273H63.3672C60.1474 107.273 57.5371 104.663 57.5371 101.443V55.1914C57.5371 51.9716 60.1474 49.3613 63.3672 49.3613H137.215C140.435 49.3613 143.045 51.9716 143.045 55.1914V101.443C143.045 104.663 140.435 107.273 137.215 107.273Z" fill="#FFAC2B"/>
<path d="M137.211 49.3613H100.287V107.273H137.211C140.431 107.273 143.041 104.663 143.041 101.443V55.1914C143.041 51.9716 140.431 49.3613 137.211 49.3613Z" fill="#FF981E"/>
<path d="M110.002 74.625C110.002 71.4052 107.392 68.7949 104.172 68.7949H96.3984C93.1787 68.7949 90.5684 71.4052 90.5684 74.625C90.5684 77.1622 92.1922 79.3151 94.4551 80.1162V82.3984C94.4551 85.6182 97.0654 88.2285 100.285 88.2285C103.505 88.2285 106.115 85.6182 106.115 82.3984V80.1162C108.378 79.3151 110.002 77.1622 110.002 74.625Z" fill="#FF981E"/>
<path d="M168.693 127.096H100.287V189.283H168.693C185.838 189.283 199.787 175.335 199.787 158.189C199.787 141.044 185.838 127.096 168.693 127.096Z" fill="#DFDAE0"/>
<path d="M119.723 167.906C125.089 167.906 129.439 163.556 129.439 158.189C129.439 152.823 125.089 148.473 119.723 148.473C114.356 148.473 110.006 152.823 110.006 158.189C110.006 163.556 114.356 167.906 119.723 167.906Z" fill="#5E5F69"/>
<path d="M158.59 167.906C163.956 167.906 168.307 163.556 168.307 158.189C168.307 152.823 163.956 148.473 158.59 148.473C153.223 148.473 148.873 152.823 148.873 158.189C148.873 163.556 153.223 167.906 158.59 167.906Z" fill="#5E5F69"/>
<path d="M104.174 68.7949H100.287V88.2285C103.507 88.2285 106.117 85.6182 106.117 82.3984V80.1162C108.38 79.3151 110.004 77.1622 110.004 74.625C110.004 71.4052 107.394 68.7949 104.174 68.7949Z" fill="#FF8512"/>
</g>
<defs>
<clipPath id="clip0_2_4864">
<rect width="199" height="199" fill="white" transform="translate(0.787109)"/>
</clipPath>
</defs>
</svg>
