<svg width="44" height="44" viewBox="0 0 44 44" fill="none" xmlns="http://www.w3.org/2000/svg">
<g clip-path="url(#clip0_25_5368)">
<path d="M27.9017 32.1941C36.7919 32.1941 43.9988 24.9872 43.9988 16.097C43.9988 7.20689 36.7919 0 27.9017 0C19.0116 0 11.8047 7.20689 11.8047 16.097C11.8047 24.9872 19.0116 32.1941 27.9017 32.1941Z" fill="#D9B1EE"/>
<path d="M16.0958 8.94531C15.1746 8.94531 14.2688 9.01269 13.3822 9.1403C12.3713 11.2462 11.8047 13.606 11.8047 16.0981C11.8047 24.9882 19.0116 32.1951 27.9017 32.1951C30.3938 32.1951 32.7536 31.6285 34.8595 30.6175C34.9871 29.731 35.0545 28.8253 35.0545 27.904C35.0546 17.4502 26.5497 8.94531 16.0958 8.94531Z" fill="#CB97E7"/>
<path d="M16.097 43.9988C24.9872 43.9988 32.1941 36.7919 32.1941 27.9017C32.1941 19.0116 24.9872 11.8047 16.097 11.8047C7.20689 11.8047 0 19.0116 0 27.9017C0 36.7919 7.20689 43.9988 16.097 43.9988Z" fill="#FFE177"/>
<path d="M16.097 43.9988C24.9872 43.9988 32.1941 36.7919 32.1941 27.9017C32.1941 19.0116 24.9872 11.8047 16.097 11.8047C7.20689 11.8047 0 19.0116 0 27.9017C0 36.7919 7.20689 43.9988 16.097 43.9988Z" fill="#FFE177"/>
<path d="M24.4776 14.1562C25.969 16.5973 26.8288 19.4664 26.8288 22.5364C26.8288 31.4266 19.6219 38.6335 10.7318 38.6335C7.66173 38.6335 4.7927 37.7737 2.35156 36.2823C5.17899 40.91 10.2773 43.9991 16.0974 43.9991C24.9876 43.9991 32.1945 36.7922 32.1945 27.902C32.1945 22.0819 29.1054 16.9836 24.4776 14.1562Z" fill="#FFD15B"/>
<path d="M25.8891 9.87949V11.3104C25.8891 11.7055 26.2094 12.0258 26.6045 12.0258L29.8869 12.0257L19.7486 22.164C19.4692 22.4434 19.4692 22.8964 19.7486 23.1757L20.8232 24.2503C21.1025 24.5297 21.5555 24.5297 21.8349 24.2503L31.9732 14.112L31.9731 17.3944C31.9731 17.7895 32.2934 18.1098 32.6886 18.1098H34.1194C34.5146 18.1098 34.8348 17.7895 34.8348 17.3944V10.5956C34.8348 10.2003 34.6745 9.84245 34.4154 9.58352C34.1565 9.32434 33.7986 9.16406 33.4033 9.16406H26.6045C26.2094 9.16406 25.8891 9.48435 25.8891 9.87949Z" fill="#F2FBFF"/>
<path d="M16.7057 28.2995L15.6939 27.2877C15.4145 27.0083 15.4145 26.5554 15.6939 26.276L16.7057 25.2642C16.985 24.9848 17.438 24.9848 17.7174 25.2642L18.7291 26.276C19.0085 26.5554 19.0085 27.0083 18.7291 27.2877L17.7174 28.2995C17.438 28.5788 16.985 28.5788 16.7057 28.2995Z" fill="#F2FBFF"/>
<path d="M12.6744 32.3385L11.6627 31.3268C11.3833 31.0474 11.3833 30.5944 11.6627 30.315L12.6744 29.3033C12.9538 29.0239 13.4068 29.0239 13.6861 29.3033L14.6979 30.315C14.9773 30.5944 14.9773 31.0474 14.6979 31.3268L13.6861 32.3385C13.4068 32.6179 12.9538 32.6179 12.6744 32.3385Z" fill="#F2FBFF"/>
</g>
<defs>
<clipPath id="clip0_25_5368">
<rect width="44" height="44" fill="white"/>
</clipPath>
</defs>
</svg>
