<svg width="42" height="30" viewBox="0 0 42 30" fill="none" xmlns="http://www.w3.org/2000/svg">
<path d="M30.8438 9.84375H11.1562C9.12073 9.84375 7.46484 8.18787 7.46484 6.15234C7.46484 4.48932 8.57038 3.07978 10.0844 2.61959C10.5446 1.10553 11.9542 0 13.6172 0C14.5617 0 15.4244 0.356918 16.0781 0.942047C17.3855 -0.228375 19.6926 -0.228375 21 0.942047C22.3074 -0.228375 24.6145 -0.228375 25.9219 0.942047C26.5756 0.356918 27.4383 0 28.3828 0C30.0458 0 31.4554 1.10553 31.9156 2.61959C33.4296 3.07978 34.5352 4.48932 34.5352 6.15234C34.5352 8.18787 32.8793 9.84375 30.8438 9.84375Z" fill="#FED843"/>
<path d="M30.8438 9.84375C32.8793 9.84375 34.5352 8.18787 34.5352 6.15234C34.5352 4.48932 33.4296 3.07978 31.9156 2.61959C31.4554 1.10553 30.0458 0 28.3828 0C27.4383 0 26.5756 0.356918 25.9219 0.942047C24.6145 -0.228375 22.3074 -0.228375 21 0.942047V9.84375H30.8438Z" fill="#FABE2C"/>
<path d="M40.7695 27.0703H39.2953L36.9601 10.5539C36.7005 8.74666 35.1287 7.38281 33.3047 7.38281H8.69531C6.87127 7.38281 5.29955 8.74666 5.03992 10.5575L2.70473 27.0703H1.23047C0.550348 27.0703 0 27.6207 0 28.3008C0 28.9809 0.550348 29.5312 1.23047 29.5312H40.7695C41.4497 29.5312 42 28.9809 42 28.3008C42 27.6207 41.4497 27.0703 40.7695 27.0703Z" fill="#E6173A"/>
<path d="M40.7695 27.0703H39.2953L36.9601 10.5539C36.7005 8.74666 35.1287 7.38281 33.3047 7.38281H21V29.5312H40.7695C41.4497 29.5312 42 28.9809 42 28.3008C42 27.6207 41.4497 27.0703 40.7695 27.0703Z" fill="#E6173A"/>
<path d="M28.3828 24.6094C27.1761 24.6094 26.0434 24.0178 25.3529 23.0269C24.9695 22.4768 24.3395 22.1484 23.6676 22.1484H18.3325C17.6606 22.1484 17.0305 22.4768 16.6472 23.0269C15.9566 24.0178 14.8239 24.6094 13.6172 24.6094C11.5817 24.6094 9.92578 22.9534 9.92578 20.918C9.92578 19.9735 10.2824 19.1106 10.868 18.457C10.2824 17.8035 9.92578 16.9406 9.92578 15.9961C9.92578 13.9607 11.5817 12.3047 13.6172 12.3047C14.8239 12.3047 15.9566 12.8962 16.6471 13.8872C17.0305 14.4373 17.6605 14.7656 18.3324 14.7656H23.6675C24.3394 14.7656 24.9695 14.4373 25.3528 13.8872C26.0434 12.8962 27.1761 12.3047 28.3828 12.3047C30.4183 12.3047 32.0742 13.9607 32.0742 15.9961C32.0742 16.9406 31.7176 17.8035 31.132 18.457C31.7176 19.1106 32.0742 19.9735 32.0742 20.918C32.0742 22.9534 30.4183 24.6094 28.3828 24.6094Z" fill="#F0F7FF"/>
<path d="M21 22.1484H23.6676C24.3395 22.1484 24.9696 22.4768 25.3529 23.0269C26.0434 24.0178 27.1761 24.6094 28.3828 24.6094C30.4183 24.6094 32.0742 22.9534 32.0742 20.918C32.0742 19.9735 31.7176 19.1106 31.132 18.457C31.7176 17.8035 32.0742 16.9406 32.0742 15.9961C32.0742 13.9607 30.4183 12.3047 28.3828 12.3047C27.1761 12.3047 26.0434 12.8962 25.3529 13.8872C24.9695 14.4373 24.3395 14.7656 23.6676 14.7656H21V22.1484Z" fill="#DFE7F4"/>
</svg>
