<svg width="43" height="42" viewBox="0 0 43 42" fill="none" xmlns="http://www.w3.org/2000/svg">
<path d="M1.0754 0.139103C0.595202 0.219068 0.219094 0.595176 0.139128 1.07538C-0.533123 5.1149 1.24571 10.1128 5.15198 14.0191C9.05825 17.9254 14.0562 19.7042 18.0957 19.032C18.5759 18.9521 18.952 18.576 19.0319 18.0958C19.7042 14.0563 17.9254 9.05831 14.0191 5.15204C10.1129 1.24569 5.11492 -0.533066 1.0754 0.139103Z" fill="url(#paint0_linear_25_6744)"/>
<path d="M19.0319 18.0958C19.7041 14.0562 17.9254 9.05828 14.019 5.15201C10.1127 1.24566 5.11478 -0.533176 1.07526 0.139158C0.835116 0.179099 0.621079 0.293076 0.457031 0.457124L18.7139 18.714C18.8779 18.5499 18.9919 18.3358 19.0319 18.0958Z" fill="url(#paint1_linear_25_6744)"/>
<path d="M16.5938 8.33247C15.878 7.22383 15.0191 6.152 14.0191 5.15198C10.1129 1.24571 5.11492 -0.533123 1.0754 0.139128C0.595202 0.219094 0.219094 0.595202 0.139128 1.0754C-0.533123 5.11492 1.24571 10.1129 5.15198 14.0191C6.15192 15.0191 7.22383 15.8781 8.33247 16.5938H16.5938V8.33247Z" fill="url(#paint2_linear_25_6744)"/>
<path d="M11.0749 11.0749V2.73158C7.78685 0.537025 4.14732 -0.37504 1.06631 0.140493C0.592613 0.219717 0.219716 0.592613 0.140492 1.06631C-0.37504 4.14724 0.537024 7.78685 2.73166 11.0749H11.0749Z" fill="url(#paint3_linear_25_6744)"/>
<path d="M5.55557 5.55556V0.315577C4.00024 -0.031625 2.47456 -0.0955313 1.06582 0.139753C0.591961 0.218894 0.218899 0.591955 0.139758 1.06582C-0.0955261 2.47456 -0.0316198 4.00024 0.3155 5.55556H5.55557Z" fill="url(#paint4_linear_25_6744)"/>
<path d="M22.4595 32.0946C23.8826 36.2843 22.3393 40.5967 19.0126 41.7266C15.686 42.8565 11.8355 40.376 10.4125 36.1863C8.98939 31.9966 10.5327 27.6841 13.8594 26.5542C17.186 25.4243 21.0365 27.9048 22.4595 32.0946Z" fill="url(#paint5_linear_25_6744)"/>
<path d="M22.4595 32.0946C23.8826 36.2843 22.3393 40.5967 19.0126 41.7266C15.686 42.8565 11.8355 40.376 10.4125 36.1863C8.98939 31.9966 10.5327 27.6841 13.8594 26.5542C17.186 25.4243 21.0365 27.9048 22.4595 32.0946Z" fill="url(#paint6_linear_25_6744)"/>
<path d="M10.6523 36.8193C12.2319 40.6214 15.858 42.798 19.0133 41.7262C22.1686 40.6545 23.719 36.7197 22.6562 32.7422L10.6523 36.8193Z" fill="url(#paint7_linear_25_6744)"/>
<path d="M16.3021 27.5402C16.4813 28.0677 15.7798 28.783 14.7355 29.1377C13.6912 29.4924 12.6993 29.3523 12.5201 28.8247C12.3409 28.2972 13.0423 27.5819 14.0867 27.2272C15.131 26.8725 16.1228 27.0126 16.3021 27.5402Z" fill="url(#paint8_linear_25_6744)"/>
<path d="M35.5021 36.8872C35.864 36.827 36.1474 36.5436 36.2076 36.1818C36.7141 33.1381 35.3738 29.3721 32.4304 26.4288C29.4871 23.4855 25.7212 22.1452 22.6775 22.6517C22.3156 22.7119 22.0322 22.9953 21.972 23.3571C21.4655 26.4008 22.8058 30.1668 25.7492 33.1101C28.6926 36.0534 32.4584 37.3938 35.5021 36.8872Z" fill="url(#paint9_linear_25_6744)"/>
<path d="M21.972 23.3564C21.4655 26.4001 22.8058 30.1661 25.7492 33.1094C28.6925 36.0527 32.4584 37.393 35.5021 36.8865C35.6831 36.8564 35.8444 36.7705 35.9679 36.6469L22.2116 22.8906C22.0881 23.0142 22.0022 23.1756 21.972 23.3564Z" fill="url(#paint10_linear_25_6744)"/>
<path d="M23.8125 30.7091C24.3518 31.5445 24.999 32.3522 25.7524 33.1056C28.6957 36.0489 32.4617 37.3892 35.5054 36.8827C35.8672 36.8225 36.1506 36.5391 36.2108 36.1773C36.7174 33.1335 35.3771 29.3676 32.4337 26.4243C31.6802 25.6708 30.8726 25.0236 30.0373 24.4844H23.8125V30.7091Z" fill="url(#paint11_linear_25_6744)"/>
<path d="M27.9688 28.6484V34.9351C30.4463 36.5886 33.1886 37.2759 35.5101 36.8875C35.867 36.8278 36.148 36.5468 36.2077 36.1899C36.5962 33.8684 35.9089 31.126 34.2553 28.6485L27.9688 28.6484Z" fill="url(#paint12_linear_25_6744)"/>
<path d="M32.125 32.8047V36.753C33.2969 37.0145 34.4465 37.0627 35.5079 36.8854C35.8649 36.8258 36.1461 36.5447 36.2057 36.1876C36.383 35.1261 36.3348 33.9766 36.0733 32.8047H32.125Z" fill="url(#paint13_linear_25_6744)"/>
<path d="M23.8086 30.7091C24.3478 31.5445 24.9951 32.3522 25.7485 33.1056C28.6918 36.0489 32.4578 37.3892 35.5015 36.8827C35.8633 36.8225 36.1467 36.5391 36.2069 36.1773C36.7135 33.1335 35.3732 29.3676 32.4298 26.4243C31.6763 25.6708 30.8687 25.0236 30.0334 24.4844H23.8086V30.7091Z" fill="url(#paint14_linear_25_6744)"/>
<path d="M41.7865 19.9008C42.0695 19.5047 42.0695 18.9728 41.7865 18.5768C39.4055 15.2451 34.6136 12.9688 29.0892 12.9688C23.5649 12.9688 18.773 15.2451 16.392 18.5768C16.1089 18.9728 16.1089 19.5047 16.392 19.9008C18.773 23.2325 23.5649 25.5088 29.0892 25.5088C34.6136 25.5088 39.4054 23.2325 41.7865 19.9008Z" fill="url(#paint15_linear_25_6744)"/>
<path d="M16.392 19.8964C18.773 23.2281 23.5649 25.5044 29.0893 25.5044C34.6136 25.5044 39.4054 23.2281 41.7865 19.8964C41.9281 19.6984 41.9988 19.4664 41.9988 19.2344H16.1797C16.1797 19.4664 16.2505 19.6984 16.392 19.8964Z" fill="url(#paint16_linear_25_6744)"/>
<path d="M25.0213 25.0804C26.3113 25.3582 27.6767 25.5088 29.0908 25.5088C34.6152 25.5088 39.407 23.2325 41.7881 19.9008C42.0711 19.5047 42.0711 18.9728 41.7881 18.5768C39.4071 15.2451 34.6152 12.9688 29.0908 12.9688C27.6767 12.9688 26.3114 13.1193 25.0213 13.3972L19.1797 19.2388L25.0213 25.0804Z" fill="url(#paint17_linear_25_6744)"/>
<path d="M26.9844 19.2433L32.884 25.1429C36.7608 24.3697 39.9793 22.4411 41.7934 19.898C42.0724 19.507 42.0724 18.9797 41.7934 18.5887C39.9793 16.0456 36.7609 14.117 32.884 13.3438L26.9844 19.2433Z" fill="url(#paint18_linear_25_6744)"/>
<path d="M34.7852 19.2365L38.4904 22.9417C39.8356 22.0875 40.9597 21.0539 41.7894 19.8913C42.0685 19.5003 42.0685 18.9727 41.7894 18.5817C40.9597 17.4192 39.8356 16.3856 38.4904 15.5312L34.7852 19.2365Z" fill="url(#paint19_linear_25_6744)"/>
<path d="M41.7865 19.893C42.0695 19.4969 42.0695 18.965 41.7865 18.569C39.4055 15.2373 34.6136 12.9609 29.0892 12.9609C23.5649 12.9609 18.773 15.2373 16.392 18.569C16.1089 18.965 16.1089 19.4969 16.392 19.893C18.773 23.2246 23.5649 25.501 29.0892 25.501C34.6136 25.501 39.4054 23.2246 41.7865 19.893Z" fill="url(#paint20_linear_25_6744)"/>
<path d="M18.8419 16.6331C22.3553 16.6331 25.2034 13.046 25.2034 8.62121C25.2034 4.1964 22.3553 0.609375 18.8419 0.609375C15.3286 0.609375 12.4805 4.1964 12.4805 8.62121C12.4805 13.046 15.3286 16.6331 18.8419 16.6331Z" fill="url(#paint21_linear_25_6744)"/>
<path d="M12.4805 8.61455C12.4805 13.0394 15.3286 16.6264 18.8419 16.6264C22.3553 16.6264 25.2034 13.0394 25.2034 8.61455C25.2034 6.98445 24.8165 5.46832 24.1526 4.20312H13.5313C12.8674 5.4684 12.4805 6.98445 12.4805 8.61455Z" fill="url(#paint22_linear_25_6744)"/>
<path d="M18.8408 15.9239C19.9438 15.9239 20.8379 15.4722 20.8379 14.9151C20.8379 14.3579 19.9438 13.9062 18.8408 13.9062C17.7379 13.9062 16.8438 14.3579 16.8438 14.9151C16.8438 15.4722 17.7379 15.9239 18.8408 15.9239Z" fill="url(#paint23_linear_25_6744)"/>
<path d="M8.8399 41.9946C8.83661 41.9946 8.8334 41.9946 8.8301 41.9946C8.03415 41.9893 7.39328 41.3398 7.39847 40.5438C7.42565 36.4555 8.45012 32.0702 10.3613 27.8619C12.3491 23.4847 15.1828 19.4396 18.7835 15.8389C24.6538 9.96854 31.8565 6.0654 39.0647 4.84846C39.8498 4.71596 40.5933 5.24483 40.7257 6.02966C40.8582 6.81449 40.3294 7.55814 39.5445 7.69065C32.9215 8.80876 26.2722 12.4264 20.8214 17.8771C14.2719 24.4266 10.3315 32.9073 10.2808 40.5629C10.2755 41.3556 9.63124 41.9946 8.8399 41.9946Z" fill="url(#paint24_linear_25_6744)"/>
<path d="M25.4981 23.6578C28.6269 26.7867 29.1494 31.3369 26.665 33.8213C24.1808 36.3056 19.6304 35.7831 16.5016 32.6543C13.3727 29.5256 12.8502 24.9752 15.3346 22.4909C17.819 20.0065 22.3693 20.5289 25.4981 23.6578Z" fill="url(#paint25_linear_25_6744)"/>
<path d="M16.9961 33.1127C20.0939 35.8246 24.3087 36.1737 26.665 33.8173C29.0213 31.461 28.6722 27.2462 25.9603 24.1484L16.9961 33.1127Z" fill="url(#paint26_linear_25_6744)"/>
<path d="M17.9633 22.2953C18.3573 22.6893 18.0444 23.6409 17.2645 24.4208C16.4846 25.2006 15.533 25.5135 15.139 25.1195C14.7451 24.7255 15.0579 23.774 15.8378 22.9941C16.6177 22.2142 17.5693 21.9013 17.9633 22.2953Z" fill="url(#paint27_linear_25_6744)"/>
<defs>
<linearGradient id="paint0_linear_25_6744" x1="3.67801" y1="11.0145" x2="16.4873" y2="7.87045" gradientUnits="userSpaceOnUse">
<stop stop-color="#BBEC6C"/>
<stop offset="1" stop-color="#81B823"/>
</linearGradient>
<linearGradient id="paint1_linear_25_6744" x1="10.3251" y1="7.83264" x2="8.1126" y2="13.3057" gradientUnits="userSpaceOnUse">
<stop stop-color="#78A91F" stop-opacity="0"/>
<stop offset="1" stop-color="#78A91F"/>
</linearGradient>
<linearGradient id="paint2_linear_25_6744" x1="11.1995" y1="11.1911" x2="18.728" y2="18.7196" gradientUnits="userSpaceOnUse">
<stop stop-color="#78A91F" stop-opacity="0"/>
<stop offset="1" stop-color="#78A91F"/>
</linearGradient>
<linearGradient id="paint3_linear_25_6744" x1="5.98103" y1="5.97264" x2="14.2691" y2="14.2608" gradientUnits="userSpaceOnUse">
<stop stop-color="#78A91F" stop-opacity="0"/>
<stop offset="1" stop-color="#78A91F"/>
</linearGradient>
<linearGradient id="paint4_linear_25_6744" x1="2.50503" y1="2.49664" x2="7.02739" y2="7.019" gradientUnits="userSpaceOnUse">
<stop stop-color="#78A91F" stop-opacity="0"/>
<stop offset="1" stop-color="#78A91F"/>
</linearGradient>
<linearGradient id="paint5_linear_25_6744" x1="11.9299" y1="33.3294" x2="19.5271" y2="34.6904" gradientUnits="userSpaceOnUse">
<stop stop-color="#FD4755"/>
<stop offset="1" stop-color="#A72B2B"/>
</linearGradient>
<linearGradient id="paint6_linear_25_6744" x1="15.0233" y1="35.6415" x2="18.537" y2="31.9081" gradientUnits="userSpaceOnUse">
<stop stop-color="#A72B2B" stop-opacity="0"/>
<stop offset="1" stop-color="#42210B"/>
</linearGradient>
<linearGradient id="paint7_linear_25_6744" x1="17.4412" y1="37.2686" x2="19.1432" y2="42.649" gradientUnits="userSpaceOnUse">
<stop stop-color="#A72B2B" stop-opacity="0"/>
<stop offset="1" stop-color="#42210B"/>
</linearGradient>
<linearGradient id="paint8_linear_25_6744" x1="13.5689" y1="26.9757" x2="15.9071" y2="30.2699" gradientUnits="userSpaceOnUse">
<stop stop-color="#A72B2B" stop-opacity="0"/>
<stop offset="1" stop-color="#42210B"/>
</linearGradient>
<linearGradient id="paint9_linear_25_6744" x1="33.5462" y1="28.697" x2="23.8945" y2="31.066" gradientUnits="userSpaceOnUse">
<stop stop-color="#BBEC6C"/>
<stop offset="1" stop-color="#81B823"/>
</linearGradient>
<linearGradient id="paint10_linear_25_6744" x1="28.5375" y1="31.0938" x2="30.2046" y2="26.9699" gradientUnits="userSpaceOnUse">
<stop stop-color="#78A91F" stop-opacity="0"/>
<stop offset="1" stop-color="#78A91F"/>
</linearGradient>
<linearGradient id="paint11_linear_25_6744" x1="27.882" y1="28.5595" x2="22.2094" y2="22.8868" gradientUnits="userSpaceOnUse">
<stop stop-color="#78A91F" stop-opacity="0"/>
<stop offset="1" stop-color="#78A91F"/>
</linearGradient>
<linearGradient id="paint12_linear_25_6744" x1="31.8119" y1="32.4972" x2="25.567" y2="26.2522" gradientUnits="userSpaceOnUse">
<stop stop-color="#78A91F" stop-opacity="0"/>
<stop offset="1" stop-color="#78A91F"/>
</linearGradient>
<linearGradient id="paint13_linear_25_6744" x1="34.4285" y1="35.1138" x2="31.021" y2="31.7063" gradientUnits="userSpaceOnUse">
<stop stop-color="#78A91F" stop-opacity="0"/>
<stop offset="1" stop-color="#78A91F"/>
</linearGradient>
<linearGradient id="paint14_linear_25_6744" x1="34.6459" y1="31.3499" x2="25.0105" y2="29.3734" gradientUnits="userSpaceOnUse">
<stop stop-color="#78A91F" stop-opacity="0"/>
<stop offset="1" stop-color="#3E5959"/>
</linearGradient>
<linearGradient id="paint15_linear_25_6744" x1="32.2362" y1="14.0443" x2="25.4009" y2="25.3267" gradientUnits="userSpaceOnUse">
<stop stop-color="#BBEC6C"/>
<stop offset="1" stop-color="#81B823"/>
</linearGradient>
<linearGradient id="paint16_linear_25_6744" x1="29.7854" y1="20.9912" x2="27.4795" y2="15.5559" gradientUnits="userSpaceOnUse">
<stop stop-color="#78A91F" stop-opacity="0"/>
<stop offset="1" stop-color="#78A91F"/>
</linearGradient>
<linearGradient id="paint17_linear_25_6744" x1="26.7937" y1="19.2387" x2="16.1451" y2="19.2387" gradientUnits="userSpaceOnUse">
<stop stop-color="#78A91F" stop-opacity="0"/>
<stop offset="1" stop-color="#78A91F"/>
</linearGradient>
<linearGradient id="paint18_linear_25_6744" x1="34.1745" y1="19.2433" x2="22.4516" y2="19.2433" gradientUnits="userSpaceOnUse">
<stop stop-color="#78A91F" stop-opacity="0"/>
<stop offset="1" stop-color="#78A91F"/>
</linearGradient>
<linearGradient id="paint19_linear_25_6744" x1="39.0863" y1="19.2365" x2="32.6898" y2="19.2365" gradientUnits="userSpaceOnUse">
<stop stop-color="#78A91F" stop-opacity="0"/>
<stop offset="1" stop-color="#78A91F"/>
</linearGradient>
<linearGradient id="paint20_linear_25_6744" x1="27.9686" y1="18.538" x2="21.7098" y2="14.6674" gradientUnits="userSpaceOnUse">
<stop stop-color="#78A91F" stop-opacity="0"/>
<stop offset="1" stop-color="#3E5959"/>
</linearGradient>
<linearGradient id="paint21_linear_25_6744" x1="15.1615" y1="6.66738" x2="21.8321" y2="10.2086" gradientUnits="userSpaceOnUse">
<stop stop-color="#FD4755"/>
<stop offset="1" stop-color="#A72B2B"/>
</linearGradient>
<linearGradient id="paint22_linear_25_6744" x1="20.1771" y1="10.3172" x2="22.0713" y2="12.4996" gradientUnits="userSpaceOnUse">
<stop stop-color="#A72B2B" stop-opacity="0"/>
<stop offset="1" stop-color="#42210B"/>
</linearGradient>
<linearGradient id="paint23_linear_25_6744" x1="18.419" y1="16.3309" x2="19.572" y2="12.4603" gradientUnits="userSpaceOnUse">
<stop stop-color="#A72B2B" stop-opacity="0"/>
<stop offset="1" stop-color="#42210B"/>
</linearGradient>
<linearGradient id="paint24_linear_25_6744" x1="18.1869" y1="17.379" x2="20.3831" y2="19.63" gradientUnits="userSpaceOnUse">
<stop stop-color="#BBEC6C"/>
<stop offset="1" stop-color="#81B823"/>
</linearGradient>
<linearGradient id="paint25_linear_25_6744" x1="16.5815" y1="29.4252" x2="23.9953" y2="27.2903" gradientUnits="userSpaceOnUse">
<stop stop-color="#FD4755"/>
<stop offset="1" stop-color="#A72B2B"/>
</linearGradient>
<linearGradient id="paint26_linear_25_6744" x1="23.1496" y1="30.7254" x2="25.8861" y2="34.1606" gradientUnits="userSpaceOnUse">
<stop stop-color="#A72B2B" stop-opacity="0"/>
<stop offset="1" stop-color="#42210B"/>
</linearGradient>
<linearGradient id="paint27_linear_25_6744" x1="15.247" y1="23.0037" x2="18.7986" y2="24.9251" gradientUnits="userSpaceOnUse">
<stop stop-color="#A72B2B" stop-opacity="0"/>
<stop offset="1" stop-color="#42210B"/>
</linearGradient>
</defs>
</svg>
