<svg width="25" height="25" viewBox="0 0 25 25" fill="none" xmlns="http://www.w3.org/2000/svg">
<g id="briefcase">
<path id="Vector" d="M20.5547 7.95312H4.55469C3.45012 7.95312 2.55469 8.84856 2.55469 9.95312V19.9531C2.55469 21.0577 3.45012 21.9531 4.55469 21.9531H20.5547C21.6593 21.9531 22.5547 21.0577 22.5547 19.9531V9.95312C22.5547 8.84856 21.6593 7.95312 20.5547 7.95312Z" stroke="#D78809" stroke-width="2" stroke-linecap="round" stroke-linejoin="round"/>
<path id="Vector_2" d="M16.5547 21.9531V5.95312C16.5547 5.42269 16.344 4.91398 15.9689 4.53891C15.5938 4.16384 15.0851 3.95313 14.5547 3.95312H10.5547C10.0243 3.95313 9.51555 4.16384 9.14047 4.53891C8.7654 4.91398 8.55469 5.42269 8.55469 5.95312V21.9531" stroke="#D78809" stroke-width="2" stroke-linecap="round" stroke-linejoin="round"/>
</g>
</svg>
